<svg xmlns:xlink="http://www.w3.org/1999/xlink" xmlns="http://www.w3.org/2000/svg" width="1707" height="828"><g transform="translate(810.8249999999999,414)"><path class="link link-0" d="M0,0C-20.578665515406172,29.919151930813435,36.27942177971229,-1.5622682176253766,72.55884355942457,-3.124536435250753" stroke="#5D969F" fill="none"></path><path class="link link-1" d="M0,0C-20.578665515406172,29.919151930813435,-33.91047189186553,12.989111698844637,-67.82094378373105,25.978223397689273" stroke="#7DA6D2" fill="none"></path><path class="link link-2" d="M0,0C-20.578665515406172,29.919151930813435,-11.518181053461797,-34.43789528809417,-23.036362106923594,-68.87579057618834" stroke="#7AB439" fill="none"></path><path class="link link-0" d="M72.55884355942457,-3.124536435250753C108.83826533913685,-4.68680465287613,41.14717728761108,-100.86944007551783,54.86290305014811,-134.49258676735712" stroke="#5D969F" fill="none"></path><path class="link link-0" d="M72.55884355942457,-3.124536435250753C108.83826533913685,-4.68680465287613,104.704642890019,-30.07776416491379,139.60619052002534,-40.10368555321839" stroke="#5D969F" fill="none"></path><path class="link link-0" d="M72.55884355942457,-3.124536435250753C108.83826533913685,-4.68680465287613,93.55299886329789,55.817296096912145,124.73733181773054,74.42306146254954" stroke="#5D969F" fill="none"></path><path class="link link-0" d="M72.55884355942457,-3.124536435250753C108.83826533913685,-4.68680465287613,49.666078750208406,96.95883023977072,66.2214383336112,129.2784403196943" stroke="#5D969F" fill="none"></path><path class="link link-1" d="M-67.82094378373105,25.978223397689273C-101.73141567559657,38.96733509653391,-32.323636520506874,104.03324786805771,-43.098182027342496,138.7109971574103" stroke="#7DA6D2" fill="none"></path><path class="link link-1" d="M-67.82094378373105,25.978223397689273C-101.73141567559657,38.96733509653391,-101.73141567559657,38.96733509653391,-135.6418875674621,51.95644679537855" stroke="#7DA6D2" fill="none"></path><path class="link link-1" d="M-67.82094378373105,25.978223397689273C-101.73141567559657,38.96733509653391,-107.7056769602675,-16.34690461271134,-143.60756928035667,-21.795872816948457" stroke="#7DA6D2" fill="none"></path><path class="link link-1" d="M-67.82094378373105,25.978223397689273C-101.73141567559657,38.96733509653391,-93.55299886329792,-55.81729609691209,-124.73733181773056,-74.42306146254946" stroke="#7DA6D2" fill="none"></path><path class="link link-2" d="M-23.036362106923594,-68.87579057618834C-34.554543160385386,-103.31368586428249,-57.8172699423712,-92.33037114783824,-77.08969325649494,-123.10716153045098" stroke="#7AB439" fill="none"></path><path class="link link-2" d="M-23.036362106923594,-68.87579057618834C-34.554543160385386,-103.31368586428249,-27.81796592361376,-105.32756007692974,-37.09062123148502,-140.43674676923965" stroke="#7AB439" fill="none"></path><path class="link link-2" d="M-23.036362106923594,-68.87579057618834C-34.554543160385386,-103.31368586428249,-9.364930422458535,-108.53585683113711,-12.48657389661138,-144.7144757748495" stroke="#7AB439" fill="none"></path><path class="link link-0" d="M54.86290305014811,-134.49258676735712C68.57862881268514,-168.1157334591964,15.608217370764244,-180.89309471856185,18.72986084491709,-217.0717136622742" stroke="#5D969F" fill="none"></path><path class="link link-0" d="M54.86290305014811,-134.49258676735712C68.57862881268514,-168.1157334591964,31.100876960950107,-178.88170286144822,37.321052353140125,-214.65804343373784" stroke="#5D969F" fill="none"></path><path class="link link-0" d="M54.86290305014811,-134.49258676735712C68.57862881268514,-168.1157334591964,46.3632765393564,-175.54593346154954,55.635931847227674,-210.65512015385943" stroke="#5D969F" fill="none"></path><path class="link link-0" d="M54.86290305014811,-134.49258676735712C68.57862881268514,-168.1157334591964,61.28241863934861,-170.91048338841955,73.53890236721833,-205.09258006610344" stroke="#5D969F" fill="none"></path><path class="link link-0" d="M54.86290305014811,-134.49258676735712C68.57862881268514,-168.1157334591964,75.74784715256682,-165.00967189259842,90.89741658308017,-198.0116062711181" stroke="#5D969F" fill="none"></path><path class="link link-0" d="M54.86290305014811,-134.49258676735712C68.57862881268514,-168.1157334591964,89.65246510730722,-157.88718651788903,107.58295812876865,-189.4646238214668" stroke="#5D969F" fill="none"></path><path class="link link-0" d="M54.86290305014811,-134.49258676735712C68.57862881268514,-168.1157334591964,102.89332757703082,-149.5957596540672,123.47199309243697,-179.51491158488062" stroke="#5D969F" fill="none"></path><path class="link link-0" d="M54.86290305014811,-134.49258676735712C68.57862881268514,-168.1157334591964,115.3724038485818,-140.19677812471784,138.44688461829816,-168.23613374966138" stroke="#5D969F" fill="none"></path><path class="link link-0" d="M139.60619052002534,-40.10368555321839C174.50773815003168,-50.129606941522994,137.68195896549906,-118.36218290389142,165.21835075859886,-142.0346194846697" stroke="#5D969F" fill="none"></path><path class="link link-0" d="M139.60619052002534,-40.10368555321839C174.50773815003168,-50.129606941522994,147.34726567020616,-106.08822491617674,176.81671880424736,-127.30586989941207" stroke="#5D969F" fill="none"></path><path class="link link-0" d="M139.60619052002534,-40.10368555321839C174.50773815003168,-50.129606941522994,155.92166477216324,-93.02882682818678,187.1059977265959,-111.63459219382413" stroke="#5D969F" fill="none"></path><path class="link link-0" d="M139.60619052002534,-40.10368555321839C174.50773815003168,-50.129606941522994,163.34167442033782,-79.28067585428352,196.01000930440534,-95.1368110251402" stroke="#5D969F" fill="none"></path><path class="link link-0" d="M139.60619052002534,-40.10368555321839C174.50773815003168,-50.129606941522994,169.5523594593277,-64.94555849422302,203.46283135119322,-77.9346701930676" stroke="#5D969F" fill="none"></path><path class="link link-0" d="M139.60619052002534,-40.10368555321839C174.50773815003168,-50.129606941522994,174.50773815003168,-50.129606941522994,209.409285780038,-60.15552832982758" stroke="#5D969F" fill="none"></path><path class="link link-0" d="M139.60619052002534,-40.10368555321839C174.50773815003168,-50.129606941522994,178.17112260235834,-34.94251331783409,213.80534712282997,-41.931015981400904" stroke="#5D969F" fill="none"></path><path class="link link-0" d="M139.60619052002534,-40.10368555321839C174.50773815003168,-50.129606941522994,180.515390399528,-19.496717550849734,216.61846847943357,-23.39606106101968" stroke="#5D969F" fill="none"></path><path class="link link-0" d="M139.60619052002534,-40.10368555321839C174.50773815003168,-50.129606941522994,181.5231854029576,-3.906574908420089,217.82782248354908,-4.687889890104106" stroke="#5D969F" fill="none"></path><path class="link link-0" d="M139.60619052002534,-40.10368555321839C174.50773815003168,-50.129606941522994,181.1870462510382,11.712490647841202,217.4244555012458,14.05498877740944" stroke="#5D969F" fill="none"></path><path class="link link-0" d="M139.60619052002534,-40.10368555321839C174.50773815003168,-50.129606941522994,179.5094616004458,27.244841021185792,215.41135392053494,32.693809225422946" stroke="#5D969F" fill="none"></path><path class="link link-0" d="M124.73733181773054,74.42306146254954C155.92166477216315,93.02882682818692,172.18947644047083,57.590905267309026,206.62737172856495,69.10908632077081" stroke="#5D969F" fill="none"></path><path class="link link-0" d="M124.73733181773054,74.42306146254954C155.92166477216315,93.02882682818692,166.60127054017516,72.17994749756322,199.92152464821018,86.61593699707586" stroke="#5D969F" fill="none"></path><path class="link link-0" d="M124.73733181773054,74.42306146254954C155.92166477216315,93.02882682818692,159.77960712145585,86.23459465008708,191.735528545747,103.48151358010448" stroke="#5D969F" fill="none"></path><path class="link link-0" d="M124.73733181773054,74.42306146254954C155.92166477216315,93.02882682818692,151.77499139357514,99.65079103465166,182.12998967229012,119.58094924158198" stroke="#5D969F" fill="none"></path><path class="link link-0" d="M124.73733181773054,74.42306146254954C155.92166477216315,93.02882682818692,142.64668673081354,112.32920782713978,171.17602407697623,134.7950493925677" stroke="#5D969F" fill="none"></path><path class="link link-0" d="M124.73733181773054,74.42306146254954C155.92166477216315,93.02882682818692,132.4622759071814,124.17597846540758,158.95473108861765,149.01117415848907" stroke="#5D969F" fill="none"></path><path class="link link-0" d="M66.2214383336112,129.2784403196943C82.77679791701402,161.59805039961788,109.23400382727289,145.03055048580262,131.08080459272745,174.03666058296312" stroke="#5D969F" fill="none"></path><path class="link link-0" d="M66.2214383336112,129.2784403196943C82.77679791701402,161.59805039961788,96.36211657061894,153.88395191306358,115.63453988474271,184.66074229567627" stroke="#5D969F" fill="none"></path><path class="link link-0" d="M66.2214383336112,129.2784403196943C82.77679791701402,161.59805039961788,82.77679791701402,161.59805039961788,99.33215750041681,193.91766047954144" stroke="#5D969F" fill="none"></path><path class="link link-0" d="M66.2214383336112,129.2784403196943C82.77679791701402,161.59805039961788,68.5786288126851,168.1157334591964,82.29435457522212,201.73888015103566" stroke="#5D969F" fill="none"></path><path class="link link-0" d="M66.2214383336112,129.2784403196943C82.77679791701402,161.59805039961788,53.87272753417806,173.38874644676287,64.64727304101366,208.06649573611543" stroke="#5D969F" fill="none"></path><path class="link link-1" d="M-43.098182027342496,138.7109971574103C-53.872727534178125,173.38874644676287,23.376190827911987,180.05410816954068,28.051428993494383,216.06492980344882" stroke="#7DA6D2" fill="none"></path><path class="link link-1" d="M-43.098182027342496,138.7109971574103C-53.872727534178125,173.38874644676287,7.811341088126855,181.39710889856144,9.373609305752225,217.6765306782737" stroke="#7DA6D2" fill="none"></path><path class="link link-1" d="M-43.098182027342496,138.7109971574103C-53.872727534178125,173.38874644676287,-7.8113410881269125,181.39710889856144,-9.373609305752295,217.6765306782737" stroke="#7DA6D2" fill="none"></path><path class="link link-1" d="M-43.098182027342496,138.7109971574103C-53.872727534178125,173.38874644676287,-23.37619082791213,180.05410816954068,-28.051428993494554,216.0649298034488" stroke="#7DA6D2" fill="none"></path><path class="link link-1" d="M-43.098182027342496,138.7109971574103C-53.872727534178125,173.38874644676287,-38.76797142941695,177.3780498190222,-46.52156571530033,212.85365978282664" stroke="#7DA6D2" fill="none"></path><path class="link link-1" d="M-43.098182027342496,138.7109971574103C-53.872727534178125,173.38874644676287,-53.872727534178125,173.38874644676287,-64.64727304101375,208.06649573611543" stroke="#7DA6D2" fill="none"></path><path class="link link-1" d="M-43.098182027342496,138.7109971574103C-53.872727534178125,173.38874644676287,-68.57862881268517,168.11573345919638,-82.29435457522219,201.73888015103563" stroke="#7DA6D2" fill="none"></path><path class="link link-1" d="M-43.098182027342496,138.7109971574103C-53.872727534178125,173.38874644676287,-82.77679791701406,161.59805039961785,-99.33215750041687,193.9176604795414" stroke="#7DA6D2" fill="none"></path><path class="link link-1" d="M-43.098182027342496,138.7109971574103C-53.872727534178125,173.38874644676287,-96.36211657061891,153.8839519130636,-115.63453988474268,184.6607422956763" stroke="#7DA6D2" fill="none"></path><path class="link link-1" d="M-43.098182027342496,138.7109971574103C-53.872727534178125,173.38874644676287,-109.23400382727296,145.0305504858026,-131.08080459272753,174.0366605829631" stroke="#7DA6D2" fill="none"></path><path class="link link-1" d="M-43.098182027342496,138.7109971574103C-53.872727534178125,173.38874644676287,-121.29716073720513,135.10339360446957,-145.55659288464614,162.12407232536347" stroke="#7DA6D2" fill="none"></path><path class="link link-1" d="M-135.6418875674621,51.95644679537855C-169.55235945932765,64.94555849422319,-142.64668673081357,112.32920782713974,-171.1760240769763,134.79504939256768" stroke="#7DA6D2" fill="none"></path><path class="link link-1" d="M-135.6418875674621,51.95644679537855C-169.55235945932765,64.94555849422319,-151.77499139357516,99.65079103465162,-182.12998967229018,119.58094924158193" stroke="#7DA6D2" fill="none"></path><path class="link link-1" d="M-135.6418875674621,51.95644679537855C-169.55235945932765,64.94555849422319,-159.77960712145597,86.23459465008688,-191.73552854574714,103.48151358010425" stroke="#7DA6D2" fill="none"></path><path class="link link-1" d="M-135.6418875674621,51.95644679537855C-169.55235945932765,64.94555849422319,-166.60127054017516,72.17994749756318,-199.92152464821018,86.61593699707579" stroke="#7DA6D2" fill="none"></path><path class="link link-1" d="M-135.6418875674621,51.95644679537855C-169.55235945932765,64.94555849422319,-172.18947644047083,57.590905267308976,-206.62737172856498,69.10908632077076" stroke="#7DA6D2" fill="none"></path><path class="link link-1" d="M-135.6418875674621,51.95644679537855C-169.55235945932765,64.94555849422319,-176.50285170099832,42.575480123740306,-211.80342204119796,51.09057614848836" stroke="#7DA6D2" fill="none"></path><path class="link link-1" d="M-135.6418875674621,51.95644679537855C-169.55235945932765,64.94555849422319,-179.50946160044586,27.244841021185454,-215.41135392053502,32.69380922542254" stroke="#7DA6D2" fill="none"></path><path class="link link-1" d="M-135.6418875674621,51.95644679537855C-169.55235945932765,64.94555849422319,-181.1870462510382,11.712490647841063,-217.4244555012458,14.054988777409275" stroke="#7DA6D2" fill="none"></path><path class="link link-1" d="M-143.60756928035667,-21.795872816948457C-179.50946160044583,-27.24484102118557,-180.51539039952797,-19.496717550849954,-216.61846847943355,-23.396061061019942" stroke="#7DA6D2" fill="none"></path><path class="link link-1" d="M-143.60756928035667,-21.795872816948457C-179.50946160044583,-27.24484102118557,-178.1711226023583,-34.942513317834184,-213.80534712282994,-41.93101598140102" stroke="#7DA6D2" fill="none"></path><path class="link link-1" d="M-124.73733181773056,-74.42306146254946C-155.9216647721632,-93.02882682818682,-169.5523594593276,-64.94555849422329,-203.4628313511931,-77.93467019306794" stroke="#7DA6D2" fill="none"></path><path class="link link-1" d="M-124.73733181773056,-74.42306146254946C-155.9216647721632,-93.02882682818682,-163.34167442033777,-79.2806758542836,-196.01000930440532,-95.13681102514032" stroke="#7DA6D2" fill="none"></path><path class="link link-1" d="M-124.73733181773056,-74.42306146254946C-155.9216647721632,-93.02882682818682,-155.92166477216313,-93.02882682818696,-187.10599772659575,-111.63459219382435" stroke="#7DA6D2" fill="none"></path><path class="link link-1" d="M-124.73733181773056,-74.42306146254946C-155.9216647721632,-93.02882682818682,-147.347265670206,-106.08822491617694,-176.8167188042472,-127.30586989941231" stroke="#7DA6D2" fill="none"></path><path class="link link-1" d="M-124.73733181773056,-74.42306146254946C-155.9216647721632,-93.02882682818682,-137.6819589654989,-118.36218290389158,-165.21835075859866,-142.0346194846699" stroke="#7DA6D2" fill="none"></path><path class="link link-2" d="M-77.08969325649494,-123.10716153045098C-96.36211657061867,-153.88395191306373,-115.37240384858168,-140.19677812471795,-138.446884618298,-168.23613374966152" stroke="#7AB439" fill="none"></path><path class="link link-2" d="M-77.08969325649494,-123.10716153045098C-96.36211657061867,-153.88395191306373,-102.89332757703065,-149.59575965406734,-123.47199309243676,-179.5149115848808" stroke="#7AB439" fill="none"></path><path class="link link-2" d="M-77.08969325649494,-123.10716153045098C-96.36211657061867,-153.88395191306373,-89.6524651073072,-157.88718651788903,-107.58295812876862,-189.4646238214668" stroke="#7AB439" fill="none"></path><path class="link link-2" d="M-77.08969325649494,-123.10716153045098C-96.36211657061867,-153.88395191306373,-75.74784715256662,-165.00967189259853,-90.89741658307994,-198.0116062711182" stroke="#7AB439" fill="none"></path><path class="link link-2" d="M-37.09062123148502,-140.43674676923965C-46.36327653935627,-175.54593346154957,-46.36327653935627,-175.54593346154957,-55.63593184722752,-210.65512015385949" stroke="#7AB439" fill="none"></path><path class="link link-2" d="M-12.48657389661138,-144.7144757748495C-15.608217370764226,-180.89309471856185,-15.608217370764226,-180.89309471856185,-18.72986084491707,-217.07171366227422" stroke="#7AB439" fill="none"></path><circle r="334.08000000000004" class="main-circle" style="" stroke="#C2CBCA" fill="none"></circle><g class="node node-undefined"><circle r="0" stroke="#FFFFFF" stroke-width="1"></circle><text dy="0.31em" x="6" text-anchor="start" transform="rotate(304.5205479452055)" style="font-size: 0.43em;"></text></g><g class="node node-0" fill="#5D969F"><circle r="0" stroke="#FFFFFF" stroke-width="1" fill="#5D969F"></circle><text dy="0.31em" x="-6" text-anchor="end" transform="rotate(-2.465753424657521)" style="font-size: 0.43em;" fill="#5D969F"></text></g><g class="node node-1" fill="#7DA6D2"><circle r="0" stroke="#FFFFFF" stroke-width="1" fill="#7DA6D2"></circle><text dy="0.31em" x="6" text-anchor="start" transform="rotate(339.041095890411)" style="font-size: 0.43em;" fill="#7DA6D2"></text></g><g class="node node-2" fill="#7AB439"><circle r="0" stroke="#FFFFFF" stroke-width="1" fill="#7AB439"></circle><text dy="0.31em" x="6" text-anchor="start" transform="rotate(431.5068493150685)" style="font-size: 0.43em;" fill="#7AB439"></text></g><g class="node node-0" fill="#5D969F"><circle r="5" cx="126.18467701534065" cy="-309.33294956492136" stroke="#FFFFFF" stroke-width="1" fill="#5D969F"></circle><text dy="0.31em" x="-6" text-anchor="end" transform="rotate(-67.80821917808218)" style="font-size: 0.43em;" fill="#5D969F"></text></g><g class="node node-0" fill="#5D969F"><circle r="5" cx="321.09423819605826" cy="-92.2384767724023" stroke="#FFFFFF" stroke-width="1" fill="#5D969F"></circle><text dy="0.31em" x="-6" text-anchor="end" transform="rotate(-16.027397260273958)" style="font-size: 0.43em;" fill="#5D969F"></text></g><g class="node node-0" fill="#5D969F"><circle r="5" cx="286.8958631807802" cy="171.17304136386392" stroke="#FFFFFF" stroke-width="1" fill="#5D969F"></circle><text dy="0.31em" x="-6" text-anchor="end" transform="rotate(30.82191780821921)" style="font-size: 0.43em;" fill="#5D969F"></text></g><g class="node node-0" fill="#5D969F"><circle r="5" cx="152.30930816730574" cy="297.34041273529687" stroke="#FFFFFF" stroke-width="1" fill="#5D969F"></circle><text dy="0.31em" x="-6" text-anchor="end" transform="rotate(62.876712328767155)" style="font-size: 0.43em;" fill="#5D969F"></text></g><g class="node node-1" fill="#7DA6D2"><circle r="5" cx="-99.12581866288774" cy="319.0352934620437" stroke="#FFFFFF" stroke-width="1" fill="#7DA6D2"></circle><text dy="0.31em" x="6" text-anchor="start" transform="rotate(287.26027397260276)" style="font-size: 0.43em;" fill="#7DA6D2"></text></g><g class="node node-1" fill="#7DA6D2"><circle r="5" cx="-311.9763414051628" cy="119.49982762937064" stroke="#FFFFFF" stroke-width="1" fill="#7DA6D2"></circle><text dy="0.31em" x="6" text-anchor="start" transform="rotate(339.041095890411)" style="font-size: 0.43em;" fill="#7DA6D2"></text></g><g class="node node-1" fill="#7DA6D2"><circle r="5" cx="-330.2974093448203" cy="-50.13050747898145" stroke="#FFFFFF" stroke-width="1" fill="#7DA6D2"></circle><text dy="0.31em" x="6" text-anchor="start" transform="rotate(368.6301369863014)" style="font-size: 0.43em;" fill="#7DA6D2"></text></g><g class="node node-1" fill="#7DA6D2"><circle r="5" cx="-286.8958631807803" cy="-171.17304136386375" stroke="#FFFFFF" stroke-width="1" fill="#7DA6D2"></circle><text dy="0.31em" x="6" text-anchor="start" transform="rotate(390.8219178082192)" style="font-size: 0.43em;" fill="#7DA6D2"></text></g><g class="node node-2" fill="#7AB439"><circle r="5" cx="-177.30629448993835" cy="-283.1464715200372" stroke="#FFFFFF" stroke-width="1" fill="#7AB439"></circle><text dy="0.31em" x="6" text-anchor="start" transform="rotate(417.9452054794521)" style="font-size: 0.43em;" fill="#7AB439"></text></g><g class="node node-2" fill="#7AB439"><circle r="5" cx="-85.30842883241553" cy="-323.00451756925116" stroke="#FFFFFF" stroke-width="1" fill="#7AB439"></circle><text dy="0.31em" x="6" text-anchor="start" transform="rotate(435.2054794520548)" style="font-size: 0.43em;" fill="#7AB439"></text></g><g class="node node-2" fill="#7AB439"><circle r="5" cx="-28.71911996220617" cy="-332.8432942821538" stroke="#FFFFFF" stroke-width="1" fill="#7AB439"></circle><text dy="0.31em" x="6" text-anchor="start" transform="rotate(445.0684931506849)" style="font-size: 0.43em;" fill="#7AB439"></text></g><g class="node node-0" transform="translate(18.72986084491709,-217.0717136622742)" fill="#5D969F"><circle r="2" stroke="#FFFFFF" stroke-width="1" fill="#5D969F"></circle><text dy="0.31em" x="6" text-anchor="start" transform="rotate(-85.06849315068492)" style="font-size: 0.43em;" fill="#5D969F">Anchoring and adjustment bias</text></g><g class="node node-0" transform="translate(37.321052353140125,-214.65804343373784)" fill="#5D969F"><circle r="2" stroke="#FFFFFF" stroke-width="1" fill="#5D969F"></circle><text dy="0.31em" x="6" text-anchor="start" transform="rotate(-80.13698630136983)" style="font-size: 0.43em;" fill="#5D969F">Belief perseverance biases</text></g><g class="node node-0" transform="translate(55.635931847227674,-210.65512015385943)" fill="#5D969F"><circle r="2" stroke="#FFFFFF" stroke-width="1" fill="#5D969F"></circle><text dy="0.31em" x="6" text-anchor="start" transform="rotate(-75.2054794520548)" style="font-size: 0.43em;" fill="#5D969F">Choice-supportive bias</text></g><g class="node node-0" transform="translate(73.53890236721833,-205.09258006610344)" fill="#5D969F"><circle r="2" stroke="#FFFFFF" stroke-width="1" fill="#5D969F"></circle><text dy="0.31em" x="6" text-anchor="start" transform="rotate(-70.27397260273972)" style="font-size: 0.43em;" fill="#5D969F">Confirmation bias</text></g><g class="node node-0" transform="translate(90.89741658308017,-198.0116062711181)" fill="#5D969F"><circle r="2" stroke="#FFFFFF" stroke-width="1" fill="#5D969F"></circle><text dy="0.31em" x="6" text-anchor="start" transform="rotate(-65.34246575342463)" style="font-size: 0.43em;" fill="#5D969F">Congruence bias</text></g><g class="node node-0" transform="translate(107.58295812876865,-189.4646238214668)" fill="#5D969F"><circle r="2" stroke="#FFFFFF" stroke-width="1" fill="#5D969F"></circle><text dy="0.31em" x="6" text-anchor="start" transform="rotate(-60.41095890410958)" style="font-size: 0.43em;" fill="#5D969F">Conservatism bias</text></g><g class="node node-0" transform="translate(123.47199309243697,-179.51491158488062)" fill="#5D969F"><circle r="2" stroke="#FFFFFF" stroke-width="1" fill="#5D969F"></circle><text dy="0.31em" x="6" text-anchor="start" transform="rotate(-55.4794520547945)" style="font-size: 0.43em;" fill="#5D969F">Information-processing biases</text></g><g class="node node-0" transform="translate(138.44688461829816,-168.23613374966138)" fill="#5D969F"><circle r="2" stroke="#FFFFFF" stroke-width="1" fill="#5D969F"></circle><text dy="0.31em" x="6" text-anchor="start" transform="rotate(-50.54794520547945)" style="font-size: 0.43em;" fill="#5D969F">Post-purchase rationalisation</text></g><g class="node node-0" transform="translate(165.21835075859886,-142.0346194846697)" fill="#5D969F"><circle r="2" stroke="#FFFFFF" stroke-width="1" fill="#5D969F"></circle><text dy="0.31em" x="6" text-anchor="start" transform="rotate(-40.68493150684929)" style="font-size: 0.43em;" fill="#5D969F">Acquiescence bias</text></g><g class="node node-0" transform="translate(176.81671880424736,-127.30586989941207)" fill="#5D969F"><circle r="2" stroke="#FFFFFF" stroke-width="1" fill="#5D969F"></circle><text dy="0.31em" x="6" text-anchor="start" transform="rotate(-35.75342465753422)" style="font-size: 0.43em;" fill="#5D969F">Agreement bias</text></g><g class="node node-0" transform="translate(187.1059977265959,-111.63459219382413)" fill="#5D969F"><circle r="2" stroke="#FFFFFF" stroke-width="1" fill="#5D969F"></circle><text dy="0.31em" x="6" text-anchor="start" transform="rotate(-30.821917808219162)" style="font-size: 0.43em;" fill="#5D969F">Authority bias</text></g><g class="node node-0" transform="translate(196.01000930440534,-95.1368110251402)" fill="#5D969F"><circle r="2" stroke="#FFFFFF" stroke-width="1" fill="#5D969F"></circle><text dy="0.31em" x="6" text-anchor="start" transform="rotate(-25.89041095890408)" style="font-size: 0.43em;" fill="#5D969F">Courtesy  bias</text></g><g class="node node-0" transform="translate(203.46283135119322,-77.9346701930676)" fill="#5D969F"><circle r="2" stroke="#FFFFFF" stroke-width="1" fill="#5D969F"></circle><text dy="0.31em" x="6" text-anchor="start" transform="rotate(-20.958904109589)" style="font-size: 0.43em;" fill="#5D969F">Demand characteristics bias</text></g><g class="node node-0" transform="translate(209.409285780038,-60.15552832982758)" fill="#5D969F"><circle r="2" stroke="#FFFFFF" stroke-width="1" fill="#5D969F"></circle><text dy="0.31em" x="6" text-anchor="start" transform="rotate(-16.027397260273958)" style="font-size: 0.43em;" fill="#5D969F">Funding bias</text></g><g class="node node-0" transform="translate(213.80534712282997,-41.931015981400904)" fill="#5D969F"><circle r="2" stroke="#FFFFFF" stroke-width="1" fill="#5D969F"></circle><text dy="0.31em" x="6" text-anchor="start" transform="rotate(-11.095890410958877)" style="font-size: 0.43em;" fill="#5D969F">Precision bias</text></g><g class="node node-0" transform="translate(216.61846847943357,-23.39606106101968)" fill="#5D969F"><circle r="2" stroke="#FFFFFF" stroke-width="1" fill="#5D969F"></circle><text dy="0.31em" x="6" text-anchor="start" transform="rotate(-6.164383561643821)" style="font-size: 0.43em;" fill="#5D969F">Publication bias</text></g><g class="node node-0" transform="translate(217.82782248354908,-4.687889890104106)" fill="#5D969F"><circle r="2" stroke="#FFFFFF" stroke-width="1" fill="#5D969F"></circle><text dy="0.31em" x="6" text-anchor="start" transform="rotate(-1.2328767123287414)" style="font-size: 0.43em;" fill="#5D969F">Self-serving bias</text></g><g class="node node-0" transform="translate(217.4244555012458,14.05498877740944)" fill="#5D969F"><circle r="2" stroke="#FFFFFF" stroke-width="1" fill="#5D969F"></circle><text dy="0.31em" x="6" text-anchor="start" transform="rotate(3.698630136986339)" style="font-size: 0.43em;" fill="#5D969F">Social desirability bias</text></g><g class="node node-0" transform="translate(215.41135392053494,32.693809225422946)" fill="#5D969F"><circle r="2" stroke="#FFFFFF" stroke-width="1" fill="#5D969F"></circle><text dy="0.31em" x="6" text-anchor="start" transform="rotate(8.63013698630142)" style="font-size: 0.43em;" fill="#5D969F">Status quo bias</text></g><g class="node node-0" transform="translate(206.62737172856495,69.10908632077081)" fill="#5D969F"><circle r="2" stroke="#FFFFFF" stroke-width="1" fill="#5D969F"></circle><text dy="0.31em" x="6" text-anchor="start" transform="rotate(18.493150684931518)" style="font-size: 0.43em;" fill="#5D969F">Attribution/attributional bias</text></g><g class="node node-0" transform="translate(199.92152464821018,86.61593699707586)" fill="#5D969F"><circle r="2" stroke="#FFFFFF" stroke-width="1" fill="#5D969F"></circle><text dy="0.31em" x="6" text-anchor="start" transform="rotate(23.424657534246585)" style="font-size: 0.43em;" fill="#5D969F">Correspondence bias</text></g><g class="node node-0" transform="translate(191.735528545747,103.48151358010448)" fill="#5D969F"><circle r="2" stroke="#FFFFFF" stroke-width="1" fill="#5D969F"></circle><text dy="0.31em" x="6" text-anchor="start" transform="rotate(28.35616438356165)" style="font-size: 0.43em;" fill="#5D969F">Cultural bias</text></g><g class="node node-0" transform="translate(182.12998967229012,119.58094924158198)" fill="#5D969F"><circle r="2" stroke="#FFFFFF" stroke-width="1" fill="#5D969F"></circle><text dy="0.31em" x="6" text-anchor="start" transform="rotate(33.28767123287672)" style="font-size: 0.43em;" fill="#5D969F">Fundamental attribution bias</text></g><g class="node node-0" transform="translate(171.17602407697623,134.7950493925677)" fill="#5D969F"><circle r="2" stroke="#FFFFFF" stroke-width="1" fill="#5D969F"></circle><text dy="0.31em" x="6" text-anchor="start" transform="rotate(38.21917808219179)" style="font-size: 0.43em;" fill="#5D969F">Just-world fallacy</text></g><g class="node node-0" transform="translate(158.95473108861765,149.01117415848907)" fill="#5D969F"><circle r="2" stroke="#FFFFFF" stroke-width="1" fill="#5D969F"></circle><text dy="0.31em" x="6" text-anchor="start" transform="rotate(43.15068493150685)" style="font-size: 0.43em;" fill="#5D969F">Representativeness bias</text></g><g class="node node-0" transform="translate(131.08080459272745,174.03666058296312)" fill="#5D969F"><circle r="2" stroke="#FFFFFF" stroke-width="1" fill="#5D969F"></circle><text dy="0.31em" x="6" text-anchor="start" transform="rotate(53.01369863013699)" style="font-size: 0.43em;" fill="#5D969F">Apophenia</text></g><g class="node node-0" transform="translate(115.63453988474271,184.66074229567627)" fill="#5D969F"><circle r="2" stroke="#FFFFFF" stroke-width="1" fill="#5D969F"></circle><text dy="0.31em" x="6" text-anchor="start" transform="rotate(57.945205479452035)" style="font-size: 0.43em;" fill="#5D969F">Framing bias</text></g><g class="node node-0" transform="translate(99.33215750041681,193.91766047954144)" fill="#5D969F"><circle r="2" stroke="#FFFFFF" stroke-width="1" fill="#5D969F"></circle><text dy="0.31em" x="6" text-anchor="start" transform="rotate(62.876712328767155)" style="font-size: 0.43em;" fill="#5D969F">Frequency illusion</text></g><g class="node node-0" transform="translate(82.29435457522212,201.73888015103566)" fill="#5D969F"><circle r="2" stroke="#FFFFFF" stroke-width="1" fill="#5D969F"></circle><text dy="0.31em" x="6" text-anchor="start" transform="rotate(67.8082191780822)" style="font-size: 0.43em;" fill="#5D969F">Overconfidence bias</text></g><g class="node node-0" transform="translate(64.64727304101366,208.06649573611543)" fill="#5D969F"><circle r="2" stroke="#FFFFFF" stroke-width="1" fill="#5D969F"></circle><text dy="0.31em" x="6" text-anchor="start" transform="rotate(72.73972602739725)" style="font-size: 0.43em;" fill="#5D969F">Pareidolio</text></g><g class="node node-1" transform="translate(28.051428993494383,216.06492980344882)" fill="#7DA6D2"><circle r="2" stroke="#FFFFFF" stroke-width="1" fill="#7DA6D2"></circle><text dy="0.31em" x="6" text-anchor="start" transform="rotate(82.60273972602744)" style="font-size: 0.43em;" fill="#7DA6D2">Ascertainment bias</text></g><g class="node node-1" transform="translate(9.373609305752225,217.6765306782737)" fill="#7DA6D2"><circle r="2" stroke="#FFFFFF" stroke-width="1" fill="#7DA6D2"></circle><text dy="0.31em" x="6" text-anchor="start" transform="rotate(87.5342465753425)" style="font-size: 0.43em;" fill="#7DA6D2">Attrition bias</text></g><g class="node node-1" transform="translate(-9.373609305752295,217.6765306782737)" fill="#7DA6D2"><circle r="2" stroke="#FFFFFF" stroke-width="1" fill="#7DA6D2"></circle><text dy="0.31em" x="-6" text-anchor="end" transform="rotate(272.4657534246576)" style="font-size: 0.43em;" fill="#7DA6D2">Cherry picking</text></g><g class="node node-1" transform="translate(-28.051428993494554,216.0649298034488)" fill="#7DA6D2"><circle r="2" stroke="#FFFFFF" stroke-width="1" fill="#7DA6D2"></circle><text dy="0.31em" x="-6" text-anchor="end" transform="rotate(277.3972602739726)" style="font-size: 0.43em;" fill="#7DA6D2">Healthy user bias</text></g><g class="node node-1" transform="translate(-46.52156571530033,212.85365978282664)" fill="#7DA6D2"><circle r="2" stroke="#FFFFFF" stroke-width="1" fill="#7DA6D2"></circle><text dy="0.31em" x="-6" text-anchor="end" transform="rotate(282.3287671232877)" style="font-size: 0.43em;" fill="#7DA6D2">Participation bias</text></g><g class="node node-1" transform="translate(-64.64727304101375,208.06649573611543)" fill="#7DA6D2"><circle r="2" stroke="#FFFFFF" stroke-width="1" fill="#7DA6D2"></circle><text dy="0.31em" x="-6" text-anchor="end" transform="rotate(287.26027397260276)" style="font-size: 0.43em;" fill="#7DA6D2">Sampling bias</text></g><g class="node node-1" transform="translate(-82.29435457522219,201.73888015103563)" fill="#7DA6D2"><circle r="2" stroke="#FFFFFF" stroke-width="1" fill="#7DA6D2"></circle><text dy="0.31em" x="-6" text-anchor="end" transform="rotate(292.1917808219178)" style="font-size: 0.43em;" fill="#7DA6D2">Self-selection bias</text></g><g class="node node-1" transform="translate(-99.33215750041687,193.9176604795414)" fill="#7DA6D2"><circle r="2" stroke="#FFFFFF" stroke-width="1" fill="#7DA6D2"></circle><text dy="0.31em" x="-6" text-anchor="end" transform="rotate(297.12328767123284)" style="font-size: 0.43em;" fill="#7DA6D2">Spectrum bias</text></g><g class="node node-1" transform="translate(-115.63453988474268,184.6607422956763)" fill="#7DA6D2"><circle r="2" stroke="#FFFFFF" stroke-width="1" fill="#7DA6D2"></circle><text dy="0.31em" x="-6" text-anchor="end" transform="rotate(302.05479452054794)" style="font-size: 0.43em;" fill="#7DA6D2">Survivorship bias</text></g><g class="node node-1" transform="translate(-131.08080459272753,174.0366605829631)" fill="#7DA6D2"><circle r="2" stroke="#FFFFFF" stroke-width="1" fill="#7DA6D2"></circle><text dy="0.31em" x="-6" text-anchor="end" transform="rotate(306.98630136986304)" style="font-size: 0.43em;" fill="#7DA6D2">Susceptibility bias</text></g><g class="node node-1" transform="translate(-145.55659288464614,162.12407232536347)" fill="#7DA6D2"><circle r="2" stroke="#FFFFFF" stroke-width="1" fill="#7DA6D2"></circle><text dy="0.31em" x="-6" text-anchor="end" transform="rotate(311.91780821917814)" style="font-size: 0.43em;" fill="#7DA6D2">Volunteer bias</text></g><g class="node node-1" transform="translate(-171.1760240769763,134.79504939256768)" fill="#7DA6D2"><circle r="2" stroke="#FFFFFF" stroke-width="1" fill="#7DA6D2"></circle><text dy="0.31em" x="-6" text-anchor="end" transform="rotate(321.7808219178082)" style="font-size: 0.43em;" fill="#7DA6D2">Data fabrication</text></g><g class="node node-1" transform="translate(-182.12998967229018,119.58094924158193)" fill="#7DA6D2"><circle r="2" stroke="#FFFFFF" stroke-width="1" fill="#7DA6D2"></circle><text dy="0.31em" x="-6" text-anchor="end" transform="rotate(326.71232876712327)" style="font-size: 0.43em;" fill="#7DA6D2">Data Missing at random (MAR)</text></g><g class="node node-1" transform="translate(-191.73552854574714,103.48151358010425)" fill="#7DA6D2"><circle r="2" stroke="#FFFFFF" stroke-width="1" fill="#7DA6D2"></circle><text dy="0.31em" x="-6" text-anchor="end" transform="rotate(331.6438356164384)" style="font-size: 0.43em;" fill="#7DA6D2">Data Missing not at random (MNAR)</text></g><g class="node node-1" transform="translate(-199.92152464821018,86.61593699707579)" fill="#7DA6D2"><circle r="2" stroke="#FFFFFF" stroke-width="1" fill="#7DA6D2"></circle><text dy="0.31em" x="-6" text-anchor="end" transform="rotate(336.57534246575347)" style="font-size: 0.43em;" fill="#7DA6D2">Inappropriate imputation and extrapolation</text></g><g class="node node-1" transform="translate(-206.62737172856498,69.10908632077076)" fill="#7DA6D2"><circle r="2" stroke="#FFFFFF" stroke-width="1" fill="#7DA6D2"></circle><text dy="0.31em" x="-6" text-anchor="end" transform="rotate(341.50684931506856)" style="font-size: 0.43em;" fill="#7DA6D2">Information bias</text></g><g class="node node-1" transform="translate(-211.80342204119796,51.09057614848836)" fill="#7DA6D2"><circle r="2" stroke="#FFFFFF" stroke-width="1" fill="#7DA6D2"></circle><text dy="0.31em" x="-6" text-anchor="end" transform="rotate(346.4383561643836)" style="font-size: 0.43em;" fill="#7DA6D2">Observer bias</text></g><g class="node node-1" transform="translate(-215.41135392053502,32.69380922542254)" fill="#7DA6D2"><circle r="2" stroke="#FFFFFF" stroke-width="1" fill="#7DA6D2"></circle><text dy="0.31em" x="-6" text-anchor="end" transform="rotate(351.3698630136987)" style="font-size: 0.43em;" fill="#7DA6D2">Recall bias</text></g><g class="node node-1" transform="translate(-217.4244555012458,14.054988777409275)" fill="#7DA6D2"><circle r="2" stroke="#FFFFFF" stroke-width="1" fill="#7DA6D2"></circle><text dy="0.31em" x="-6" text-anchor="end" transform="rotate(356.3013698630137)" style="font-size: 0.43em;" fill="#7DA6D2">Response bias</text></g><g class="node node-1" transform="translate(-216.61846847943355,-23.396061061019942)" fill="#7DA6D2"><circle r="2" stroke="#FFFFFF" stroke-width="1" fill="#7DA6D2"></circle><text dy="0.31em" x="-6" text-anchor="end" transform="rotate(366.1643835616439)" style="font-size: 0.43em;" fill="#7DA6D2">Omitted variable bias</text></g><g class="node node-1" transform="translate(-213.80534712282994,-41.93101598140102)" fill="#7DA6D2"><circle r="2" stroke="#FFFFFF" stroke-width="1" fill="#7DA6D2"></circle><text dy="0.31em" x="-6" text-anchor="end" transform="rotate(371.0958904109589)" style="font-size: 0.43em;" fill="#7DA6D2">Uncontrolled extraneous variables</text></g><g class="node node-1" transform="translate(-203.4628313511931,-77.93467019306794)" fill="#7DA6D2"><circle r="2" stroke="#FFFFFF" stroke-width="1" fill="#7DA6D2"></circle><text dy="0.31em" x="-6" text-anchor="end" transform="rotate(380.9589041095891)" style="font-size: 0.43em;" fill="#7DA6D2">Indication bias</text></g><g class="node node-1" transform="translate(-196.01000930440532,-95.13681102514032)" fill="#7DA6D2"><circle r="2" stroke="#FFFFFF" stroke-width="1" fill="#7DA6D2"></circle><text dy="0.31em" x="-6" text-anchor="end" transform="rotate(385.8904109589041)" style="font-size: 0.43em;" fill="#7DA6D2">Lead time bias</text></g><g class="node node-1" transform="translate(-187.10599772659575,-111.63459219382435)" fill="#7DA6D2"><circle r="2" stroke="#FFFFFF" stroke-width="1" fill="#7DA6D2"></circle><text dy="0.31em" x="-6" text-anchor="end" transform="rotate(390.8219178082192)" style="font-size: 0.43em;" fill="#7DA6D2">Length time bias</text></g><g class="node node-1" transform="translate(-176.8167188042472,-127.30586989941231)" fill="#7DA6D2"><circle r="2" stroke="#FFFFFF" stroke-width="1" fill="#7DA6D2"></circle><text dy="0.31em" x="-6" text-anchor="end" transform="rotate(395.7534246575343)" style="font-size: 0.43em;" fill="#7DA6D2">Protopathic bias</text></g><g class="node node-1" transform="translate(-165.21835075859866,-142.0346194846699)" fill="#7DA6D2"><circle r="2" stroke="#FFFFFF" stroke-width="1" fill="#7DA6D2"></circle><text dy="0.31em" x="-6" text-anchor="end" transform="rotate(400.6849315068494)" style="font-size: 0.43em;" fill="#7DA6D2">Time interval bias</text></g><g class="node node-2" transform="translate(-138.446884618298,-168.23613374966152)" fill="#7AB439"><circle r="2" stroke="#FFFFFF" stroke-width="1" fill="#7AB439"></circle><text dy="0.31em" x="-6" text-anchor="end" transform="rotate(410.5479452054795)" style="font-size: 0.43em;" fill="#7AB439">Base rate fallacy</text></g><g class="node node-2" transform="translate(-123.47199309243676,-179.5149115848808)" fill="#7AB439"><circle r="2" stroke="#FFFFFF" stroke-width="1" fill="#7AB439"></circle><text dy="0.31em" x="-6" text-anchor="end" transform="rotate(415.47945205479454)" style="font-size: 0.43em;" fill="#7AB439">Duration neglect</text></g><g class="node node-2" transform="translate(-107.58295812876862,-189.4646238214668)" fill="#7AB439"><circle r="2" stroke="#FFFFFF" stroke-width="1" fill="#7AB439"></circle><text dy="0.31em" x="-6" text-anchor="end" transform="rotate(420.4109589041096)" style="font-size: 0.43em;" fill="#7AB439">Insensitivity to sample size</text></g><g class="node node-2" transform="translate(-90.89741658307994,-198.0116062711182)" fill="#7AB439"><circle r="2" stroke="#FFFFFF" stroke-width="1" fill="#7AB439"></circle><text dy="0.31em" x="-6" text-anchor="end" transform="rotate(425.34246575342473)" style="font-size: 0.43em;" fill="#7AB439">Peak-end bias</text></g><g class="node node-2" transform="translate(-55.63593184722752,-210.65512015385949)" fill="#7AB439"><circle r="2" stroke="#FFFFFF" stroke-width="1" fill="#7AB439"></circle><text dy="0.31em" x="-6" text-anchor="end" transform="rotate(435.2054794520548)" style="font-size: 0.43em;" fill="#7AB439">Simpson's paradox</text></g><g class="node node-2" transform="translate(-18.72986084491707,-217.07171366227422)" fill="#7AB439"><circle r="2" stroke="#FFFFFF" stroke-width="1" fill="#7AB439"></circle><text dy="0.31em" x="-6" text-anchor="end" transform="rotate(445.0684931506849)" style="font-size: 0.43em;" fill="#7AB439">Data dredging</text></g></g></svg>