<svg xmlns:xlink="http://www.w3.org/1999/xlink" xmlns="http://www.w3.org/2000/svg" width="1707" height="828"><g transform="translate(810.8249999999999,414)"><path class="link link-0" d="M0,0C-17.53868736917592,31.796722661626205,35.507672609691646,-7.605413367925388,71.01534521938329,-15.210826735850777" stroke="#5D969F" fill="none"></path><path class="link link-1" d="M0,0C-17.53868736917592,31.796722661626205,-31.160405476648723,18.64581071406939,-62.320810953297446,37.29162142813878" stroke="#7DA6D2" fill="none"></path><path class="link link-2" d="M0,0C-17.53868736917592,31.796722661626205,-12.508639711194576,-34.09063007968012,-25.01727942238915,-68.18126015936024" stroke="#7AB439" fill="none"></path><path class="link link-0" d="M71.01534521938329,-15.210826735850777C106.52301782907493,-22.816240103776163,44.62041768952828,-99.38185178944197,59.49389025270438,-132.50913571925597" stroke="#5D969F" fill="none"></path><path class="link link-0" d="M71.01534521938329,-15.210826735850777C106.52301782907493,-22.816240103776163,107.47538626793265,-17.798187729239505,143.3005150239102,-23.730916972319342" stroke="#5D969F" fill="none"></path><path class="link link-0" d="M71.01534521938329,-15.210826735850777C106.52301782907493,-22.816240103776163,81.41169697069361,72.38694451514398,108.54892929425816,96.51592602019198" stroke="#5D969F" fill="none"></path><path class="link link-1" d="M-62.320810953297446,37.29162142813878C-93.48121642994616,55.93743214220817,-5.106223514986125,108.81939450898255,-6.808298019981501,145.09252601197676" stroke="#7DA6D2" fill="none"></path><path class="link link-1" d="M-62.320810953297446,37.29162142813878C-93.48121642994616,55.93743214220817,-93.48121642994616,55.93743214220817,-124.64162190659489,74.58324285627756" stroke="#7DA6D2" fill="none"></path><path class="link link-1" d="M-62.320810953297446,37.29162142813878C-93.48121642994616,55.93743214220817,-108.90919233961544,-2.553813583492454,-145.21225645282058,-3.4050847779899387" stroke="#7DA6D2" fill="none"></path><path class="link link-1" d="M-62.320810953297446,37.29162142813878C-93.48121642994616,55.93743214220817,-98.30852275086121,-46.93792170974323,-131.0780303344816,-62.58389561299097" stroke="#7DA6D2" fill="none"></path><path class="link link-2" d="M-25.01727942238915,-68.18126015936024C-37.52591913358372,-102.27189023904035,-62.36863450769149,-89.31902131983183,-83.15817934358866,-119.09202842644245" stroke="#7AB439" fill="none"></path><path class="link link-2" d="M-25.01727942238915,-68.18126015936024C-37.52591913358372,-102.27189023904035,-30.245860325066246,-104.65620895619696,-40.327813766755,-139.54161194159596" stroke="#7AB439" fill="none"></path><path class="link link-2" d="M-25.01727942238915,-68.18126015936024C-37.52591913358372,-102.27189023904035,-10.201222442490016,-108.46044993713339,-13.601629923320022,-144.6139332495112" stroke="#7AB439" fill="none"></path><path class="link link-0" d="M59.49389025270438,-132.50913571925597C74.36736281588048,-165.63641964906998,17.002037404150006,-180.767416561889,20.402444884980003,-216.92089987426678" stroke="#5D969F" fill="none"></path><path class="link link-0" d="M59.49389025270438,-132.50913571925597C74.36736281588048,-165.63641964906998,33.85466029226357,-178.38102517601766,40.625592350716275,-214.05723021122117" stroke="#5D969F" fill="none"></path><path class="link link-0" d="M59.49389025270438,-132.50913571925597C74.36736281588048,-165.63641964906998,50.40976720844362,-174.427014926995,60.491720650132336,-209.31241791239398" stroke="#5D969F" fill="none"></path><path class="link link-0" d="M59.49389025270438,-132.50913571925597C74.36736281588048,-165.63641964906998,66.52187127785204,-168.9401337990606,79.82624553342244,-202.7281605588727" stroke="#5D969F" fill="none"></path><path class="link link-0" d="M59.49389025270438,-132.50913571925597C74.36736281588048,-165.63641964906998,82.04937875059677,-161.96860070085418,98.45925450071611,-194.362320841025" stroke="#5D969F" fill="none"></path><path class="link link-0" d="M59.49389025270438,-132.50913571925597C74.36736281588048,-165.63641964906998,96.85583333269699,-153.57368171591264,116.22699999923638,-184.28841805909514" stroke="#5D969F" fill="none"></path><path class="link link-0" d="M59.49389025270438,-132.50913571925597C74.36736281588048,-165.63641964906998,110.81111536890144,-143.82915169412504,132.97333844268172,-172.59498203295004" stroke="#5D969F" fill="none"></path><path class="link link-0" d="M59.49389025270438,-132.50913571925597C74.36736281588048,-165.63641964906998,123.79258533889694,-132.82064591569917,148.5511024066763,-159.384775098839" stroke="#5D969F" fill="none"></path><path class="link link-0" d="M143.3005150239102,-23.730916972319342C179.12564377988778,-29.66364621539918,146.38732302969183,-107.40893734951611,175.66478763563015,-128.89072481941932" stroke="#5D969F" fill="none"></path><path class="link link-0" d="M143.3005150239102,-23.730916972319342C179.12564377988778,-29.66364621539918,155.8020273832436,-93.22905357034698,186.9624328598923,-111.87486428441636" stroke="#5D969F" fill="none"></path><path class="link link-0" d="M143.3005150239102,-23.730916972319342C179.12564377988778,-29.66364621539918,163.84753791810195,-78.22986951623885,196.61704550172232,-93.87584341948661" stroke="#5D969F" fill="none"></path><path class="link link-0" d="M143.3005150239102,-23.730916972319342C179.12564377988778,-29.66364621539918,170.4531503984006,-62.54319855597284,204.5437804780807,-75.05183826716741" stroke="#5D969F" fill="none"></path><path class="link link-0" d="M143.3005150239102,-23.730916972319342C179.12564377988778,-29.66364621539918,175.56081446414987,-46.306895717980915,210.67297735697983,-55.568274861577095" stroke="#5D969F" fill="none"></path><path class="link link-0" d="M143.3005150239102,-23.730916972319342C179.12564377988778,-29.66364621539918,179.12564377988775,-29.6636462153993,214.9507725358653,-35.59637545847916" stroke="#5D969F" fill="none"></path><path class="link link-0" d="M143.3005150239102,-23.730916972319342C179.12564377988778,-29.66364621539918,181.11631049740987,-12.759711523284533,217.3395725968918,-15.311653827941438" stroke="#5D969F" fill="none"></path><path class="link link-0" d="M143.3005150239102,-23.730916972319342C179.12564377988778,-29.66364621539918,181.51532056602574,4.256355972487607,217.81838467923086,5.107627166985128" stroke="#5D969F" fill="none"></path><path class="link link-0" d="M143.3005150239102,-23.730916972319342C179.12564377988778,-29.66364621539918,180.3191674709055,21.235018458931084,216.3830009650866,25.482022150717295" stroke="#5D969F" fill="none"></path><path class="link link-0" d="M143.3005150239102,-23.730916972319342C179.12564377988778,-29.66364621539918,177.53836304845822,38.027066839626904,213.04603565814986,45.63248020755228" stroke="#5D969F" fill="none"></path><path class="link link-0" d="M143.3005150239102,-23.730916972319342C179.12564377988778,-29.66364621539918,173.19734510793555,54.48493198962711,207.83681412952262,65.38191838755252" stroke="#5D969F" fill="none"></path><path class="link link-0" d="M108.54892929425816,96.51592602019198C135.6861616178227,120.64490752523997,160.0006407171767,85.82379120293251,192.00076886061203,102.988549443519" stroke="#5D969F" fill="none"></path><path class="link link-0" d="M108.54892929425816,96.51592602019198C135.6861616178227,120.64490752523997,151.26092737962986,100.42937824464492,181.51311285555582,120.51525389357388" stroke="#5D969F" fill="none"></path><path class="link link-0" d="M108.54892929425816,96.51592602019198C135.6861616178227,120.64490752523997,141.19192757350214,114.15238829928414,169.43031308820255,136.98286595914095" stroke="#5D969F" fill="none"></path><path class="link link-0" d="M108.54892929425816,96.51592602019198C135.6861616178227,120.64490752523997,129.8821280311327,126.87222306106274,155.85855363735925,152.24666767327528" stroke="#5D969F" fill="none"></path><path class="link link-0" d="M108.54892929425816,96.51592602019198C135.6861616178227,120.64490752523997,117.43091967755757,138.47710016473712,140.91710361306906,166.17252019768455" stroke="#5D969F" fill="none"></path><path class="link link-0" d="M108.54892929425816,96.51592602019198C135.6861616178227,120.64490752523997,103.9477241794858,148.86503553305306,124.73726901538296,178.63804263966367" stroke="#5D969F" fill="none"></path><path class="link link-1" d="M-6.808298019981501,145.09252601197676C-8.510372524976876,181.36565751497093,74.36736281588053,165.63641964906995,89.24083537905662,198.7637035788839" stroke="#7DA6D2" fill="none"></path><path class="link link-1" d="M-6.808298019981501,145.09252601197676C-8.510372524976876,181.36565751497093,58.53015022960775,171.87248087012406,70.23618027552929,206.24697704414885" stroke="#7DA6D2" fill="none"></path><path class="link link-1" d="M-6.808298019981501,145.09252601197676C-8.510372524976876,181.36565751497093,42.17857257859534,176.59812054940954,50.614287094314406,211.91774465929143" stroke="#7DA6D2" fill="none"></path><path class="link link-1" d="M-6.808298019981501,145.09252601197676C-8.510372524976876,181.36565751497093,25.456328115180725,179.7718095955088,30.547593738216868,215.72617151461057" stroke="#7DA6D2" fill="none"></path><path class="link link-1" d="M-6.808298019981501,145.09252601197676C-8.510372524976876,181.36565751497093,8.51037252497698,181.36565751497093,10.212447029972374,217.63878901796508" stroke="#7DA6D2" fill="none"></path><path class="link link-1" d="M-6.808298019981501,145.09252601197676C-8.510372524976876,181.36565751497093,-8.510372524976876,181.36565751497093,-10.21244702997225,217.6387890179651" stroke="#7DA6D2" fill="none"></path><path class="link link-1" d="M-6.808298019981501,145.09252601197676C-8.510372524976876,181.36565751497093,-25.456328115180625,179.7718095955088,-30.547593738216747,215.72617151461057" stroke="#7DA6D2" fill="none"></path><path class="link link-1" d="M-6.808298019981501,145.09252601197676C-8.510372524976876,181.36565751497093,-42.17857257859509,176.5981205494096,-50.61428709431409,211.9177446592915" stroke="#7DA6D2" fill="none"></path><path class="link link-1" d="M-6.808298019981501,145.09252601197676C-8.510372524976876,181.36565751497093,-58.53015022960766,171.8724808701241,-70.23618027552918,206.2469770441489" stroke="#7DA6D2" fill="none"></path><path class="link link-1" d="M-6.808298019981501,145.09252601197676C-8.510372524976876,181.36565751497093,-74.36736281588043,165.63641964906998,-89.2408353790565,198.76370357888396" stroke="#7DA6D2" fill="none"></path><path class="link link-1" d="M-6.808298019981501,145.09252601197676C-8.510372524976876,181.36565751497093,-89.55103234375918,157.944739616483,-107.46123881251101,189.53368753977958" stroke="#7DA6D2" fill="none"></path><path class="link link-1" d="M-124.64162190659489,74.58324285627756C-155.80202738324363,93.22905357034696,-117.43091967755743,138.47710016473727,-140.9171036130689,166.1725201976847" stroke="#7DA6D2" fill="none"></path><path class="link link-1" d="M-124.64162190659489,74.58324285627756C-155.80202738324363,93.22905357034696,-129.8821280311327,126.87222306106277,-155.85855363735922,152.2466676732753" stroke="#7DA6D2" fill="none"></path><path class="link link-1" d="M-124.64162190659489,74.58324285627756C-155.80202738324363,93.22905357034696,-141.19192757350203,114.15238829928428,-169.43031308820244,136.98286595914112" stroke="#7DA6D2" fill="none"></path><path class="link link-1" d="M-124.64162190659489,74.58324285627756C-155.80202738324363,93.22905357034696,-151.2609273796298,100.429378244645,-181.51311285555573,120.51525389357398" stroke="#7DA6D2" fill="none"></path><path class="link link-1" d="M-124.64162190659489,74.58324285627756C-155.80202738324363,93.22905357034696,-160.00064071717662,85.82379120293261,-192.00076886061194,102.98854944351912" stroke="#7DA6D2" fill="none"></path><path class="link link-1" d="M-124.64162190659489,74.58324285627756C-155.80202738324363,93.22905357034696,-167.33426267108527,70.4639815982311,-200.80111520530232,84.55677791787731" stroke="#7DA6D2" fill="none"></path><path class="link link-1" d="M-124.64162190659489,74.58324285627756C-155.80202738324363,93.22905357034696,-173.19734510793555,54.48493198962706,-207.83681412952265,65.38191838755246" stroke="#7DA6D2" fill="none"></path><path class="link link-1" d="M-124.64162190659489,74.58324285627756C-155.80202738324363,93.22905357034696,-177.53836304845822,38.027066839627004,-213.04603565814983,45.6324802075524" stroke="#7DA6D2" fill="none"></path><path class="link link-1" d="M-145.21225645282058,-3.4050847779899387C-181.51532056602574,-4.256355972487423,-181.51532056602574,4.256355972487629,-217.81838467923086,5.1076271669851545" stroke="#7DA6D2" fill="none"></path><path class="link link-1" d="M-145.21225645282058,-3.4050847779899387C-181.51532056602574,-4.256355972487423,-181.11631049740987,-12.759711523284391,-217.3395725968918,-15.311653827941267" stroke="#7DA6D2" fill="none"></path><path class="link link-1" d="M-131.0780303344816,-62.58389561299097C-163.84753791810203,-78.22986951623872,-175.56081446414987,-46.306895717980886,-210.67297735697983,-55.56827486157705" stroke="#7DA6D2" fill="none"></path><path class="link link-1" d="M-131.0780303344816,-62.58389561299097C-163.84753791810203,-78.22986951623872,-170.45315039840065,-62.543198555972666,-204.54378047808075,-75.05183826716718" stroke="#7DA6D2" fill="none"></path><path class="link link-1" d="M-131.0780303344816,-62.58389561299097C-163.84753791810203,-78.22986951623872,-163.84753791810195,-78.22986951623888,-196.61704550172232,-93.87584341948664" stroke="#7DA6D2" fill="none"></path><path class="link link-1" d="M-131.0780303344816,-62.58389561299097C-163.84753791810203,-78.22986951623872,-155.80202738324363,-93.22905357034692,-186.96243285989235,-111.87486428441629" stroke="#7DA6D2" fill="none"></path><path class="link link-1" d="M-131.0780303344816,-62.58389561299097C-163.84753791810203,-78.22986951623872,-146.38732302969194,-107.40893734951595,-175.66478763563032,-128.89072481941912" stroke="#7DA6D2" fill="none"></path><path class="link link-2" d="M-83.15817934358866,-119.09202842644245C-103.94772417948583,-148.86503553305306,-123.79258533889693,-132.82064591569917,-148.5511024066763,-159.384775098839" stroke="#7AB439" fill="none"></path><path class="link link-2" d="M-83.15817934358866,-119.09202842644245C-103.94772417948583,-148.86503553305306,-110.81111536890141,-143.82915169412504,-132.9733384426817,-172.59498203295004" stroke="#7AB439" fill="none"></path><path class="link link-2" d="M-83.15817934358866,-119.09202842644245C-103.94772417948583,-148.86503553305306,-96.85583333269707,-153.57368171591256,-116.22699999923648,-184.28841805909505" stroke="#7AB439" fill="none"></path><path class="link link-2" d="M-83.15817934358866,-119.09202842644245C-103.94772417948583,-148.86503553305306,-82.04937875059679,-161.96860070085415,-98.45925450071614,-194.36232084102497" stroke="#7AB439" fill="none"></path><path class="link link-2" d="M-40.327813766755,-139.54161194159596C-50.409767208443746,-174.42701492699496,-50.409767208443746,-174.42701492699496,-60.49172065013249,-209.31241791239393" stroke="#7AB439" fill="none"></path><path class="link link-2" d="M-13.601629923320022,-144.6139332495112C-17.002037404150027,-180.767416561889,-17.002037404150027,-180.767416561889,-20.40244488498003,-216.92089987426678" stroke="#7AB439" fill="none"></path><circle r="334.08" class="main-circle" style="" stroke="#C2CBCA" fill="none"></circle><g class="node node-undefined"><circle r="0" stroke="#FFFFFF" stroke-width="1"></circle><text dy="0.31em" x="6" text-anchor="start" transform="rotate(298.88059701492534)" style="font-size: 0.43em;"></text></g><g class="node node-0" fill="#5D969F"><circle r="0" stroke="#FFFFFF" stroke-width="1" fill="#5D969F"></circle><text dy="0.31em" x="-6" text-anchor="end" transform="rotate(-12.089552238805977)" style="font-size: 0.43em;" fill="#5D969F"></text></g><g class="node node-1" fill="#7DA6D2"><circle r="0" stroke="#FFFFFF" stroke-width="1" fill="#7DA6D2"></circle><text dy="0.31em" x="6" text-anchor="start" transform="rotate(329.1044776119403)" style="font-size: 0.43em;" fill="#7DA6D2"></text></g><g class="node node-2" fill="#7AB439"><circle r="0" stroke="#FFFFFF" stroke-width="1" fill="#7AB439"></circle><text dy="0.31em" x="6" text-anchor="start" transform="rotate(429.8507462686567)" style="font-size: 0.43em;" fill="#7AB439"></text></g><g class="node node-0" fill="#5D969F"><circle r="5" cx="136.83594758122007" cy="-304.7710121542887" stroke="#FFFFFF" stroke-width="1" fill="#5D969F"></circle><text dy="0.31em" x="-6" text-anchor="end" transform="rotate(-65.82089552238806)" style="font-size: 0.43em;" fill="#5D969F"></text></g><g class="node node-0" fill="#5D969F"><circle r="5" cx="329.59118455499345" cy="-54.58110903633448" stroke="#FFFFFF" stroke-width="1" fill="#5D969F"></circle><text dy="0.31em" x="-6" text-anchor="end" transform="rotate(-9.402985074626853)" style="font-size: 0.43em;" fill="#5D969F"></text></g><g class="node node-0" fill="#5D969F"><circle r="5" cx="249.66253737679375" cy="221.98662984644153" stroke="#FFFFFF" stroke-width="1" fill="#5D969F"></circle><text dy="0.31em" x="-6" text-anchor="end" transform="rotate(41.64179104477611)" style="font-size: 0.43em;" fill="#5D969F"></text></g><g class="node node-1" fill="#7DA6D2"><circle r="5" cx="-15.65908544595745" cy="333.7128098275465" stroke="#FFFFFF" stroke-width="1" fill="#7DA6D2"></circle><text dy="0.31em" x="6" text-anchor="start" transform="rotate(272.6865671641791)" style="font-size: 0.43em;" fill="#7DA6D2"></text></g><g class="node node-1" fill="#7DA6D2"><circle r="5" cx="-286.6757303851682" cy="171.5414585694384" stroke="#FFFFFF" stroke-width="1" fill="#7DA6D2"></circle><text dy="0.31em" x="6" text-anchor="start" transform="rotate(329.1044776119403)" style="font-size: 0.43em;" fill="#7DA6D2"></text></g><g class="node node-1" fill="#7DA6D2"><circle r="5" cx="-333.9881898414873" cy="-7.831694989376858" stroke="#FFFFFF" stroke-width="1" fill="#7DA6D2"></circle><text dy="0.31em" x="6" text-anchor="start" transform="rotate(361.3432835820895)" style="font-size: 0.43em;" fill="#7DA6D2"></text></g><g class="node node-1" fill="#7DA6D2"><circle r="5" cx="-301.4794697693077" cy="-143.94295990987922" stroke="#FFFFFF" stroke-width="1" fill="#7DA6D2"></circle><text dy="0.31em" x="6" text-anchor="start" transform="rotate(385.5223880597014)" style="font-size: 0.43em;" fill="#7DA6D2"></text></g><g class="node node-2" fill="#7AB439"><circle r="5" cx="-191.26381249025388" cy="-273.9116653808176" stroke="#FFFFFF" stroke-width="1" fill="#7AB439"></circle><text dy="0.31em" x="6" text-anchor="start" transform="rotate(415.07462686567163)" style="font-size: 0.43em;" fill="#7AB439"></text></g><g class="node node-2" fill="#7AB439"><circle r="5" cx="-92.75397166353649" cy="-320.9457074656707" stroke="#FFFFFF" stroke-width="1" fill="#7AB439"></circle><text dy="0.31em" x="6" text-anchor="start" transform="rotate(433.88059701492534)" style="font-size: 0.43em;" fill="#7AB439"></text></g><g class="node node-2" fill="#7AB439"><circle r="5" cx="-31.28374882363605" cy="-332.61204647387575" stroke="#FFFFFF" stroke-width="1" fill="#7AB439"></circle><text dy="0.31em" x="6" text-anchor="start" transform="rotate(444.6268656716418)" style="font-size: 0.43em;" fill="#7AB439"></text></g><g class="node node-0" transform="translate(20.402444884980003,-216.92089987426678)" fill="#5D969F"><circle r="2" stroke="#FFFFFF" stroke-width="1" fill="#5D969F"></circle><text dy="0.31em" x="6" text-anchor="start" transform="rotate(-84.62686567164178)" style="font-size: 0.43em;" fill="#5D969F">Anchoring and adjustment bias</text></g><g class="node node-0" transform="translate(40.625592350716275,-214.05723021122117)" fill="#5D969F"><circle r="2" stroke="#FFFFFF" stroke-width="1" fill="#5D969F"></circle><text dy="0.31em" x="6" text-anchor="start" transform="rotate(-79.25373134328356)" style="font-size: 0.43em;" fill="#5D969F">Belief perseverance biases</text></g><g class="node node-0" transform="translate(60.491720650132336,-209.31241791239398)" fill="#5D969F"><circle r="2" stroke="#FFFFFF" stroke-width="1" fill="#5D969F"></circle><text dy="0.31em" x="6" text-anchor="start" transform="rotate(-73.88059701492537)" style="font-size: 0.43em;" fill="#5D969F">Choice-supportive bias</text></g><g class="node node-0" transform="translate(79.82624553342244,-202.7281605588727)" fill="#5D969F"><circle r="2" stroke="#FFFFFF" stroke-width="1" fill="#5D969F"></circle><text dy="0.31em" x="6" text-anchor="start" transform="rotate(-68.50746268656715)" style="font-size: 0.43em;" fill="#5D969F">Confirmation biasive</text></g><g class="node node-0" transform="translate(98.45925450071611,-194.362320841025)" fill="#5D969F"><circle r="2" stroke="#FFFFFF" stroke-width="1" fill="#5D969F"></circle><text dy="0.31em" x="6" text-anchor="start" transform="rotate(-63.13432835820893)" style="font-size: 0.43em;" fill="#5D969F">Congruence bias</text></g><g class="node node-0" transform="translate(116.22699999923638,-184.28841805909514)" fill="#5D969F"><circle r="2" stroke="#FFFFFF" stroke-width="1" fill="#5D969F"></circle><text dy="0.31em" x="6" text-anchor="start" transform="rotate(-57.761194029850735)" style="font-size: 0.43em;" fill="#5D969F">Conservatism bias</text></g><g class="node node-0" transform="translate(132.97333844268172,-172.59498203295004)" fill="#5D969F"><circle r="2" stroke="#FFFFFF" stroke-width="1" fill="#5D969F"></circle><text dy="0.31em" x="6" text-anchor="start" transform="rotate(-52.38805970149252)" style="font-size: 0.43em;" fill="#5D969F">Information-processing biases</text></g><g class="node node-0" transform="translate(148.5511024066763,-159.384775098839)" fill="#5D969F"><circle r="2" stroke="#FFFFFF" stroke-width="1" fill="#5D969F"></circle><text dy="0.31em" x="6" text-anchor="start" transform="rotate(-47.014925373134304)" style="font-size: 0.43em;" fill="#5D969F">Post-purchase rationalisation</text></g><g class="node node-0" transform="translate(175.66478763563015,-128.89072481941932)" fill="#5D969F"><circle r="2" stroke="#FFFFFF" stroke-width="1" fill="#5D969F"></circle><text dy="0.31em" x="6" text-anchor="start" transform="rotate(-36.26865671641792)" style="font-size: 0.43em;" fill="#5D969F">Acquiescence bias</text></g><g class="node node-0" transform="translate(186.9624328598923,-111.87486428441636)" fill="#5D969F"><circle r="2" stroke="#FFFFFF" stroke-width="1" fill="#5D969F"></circle><text dy="0.31em" x="6" text-anchor="start" transform="rotate(-30.895522388059707)" style="font-size: 0.43em;" fill="#5D969F">Agreement bias</text></g><g class="node node-0" transform="translate(196.61704550172232,-93.87584341948661)" fill="#5D969F"><circle r="2" stroke="#FFFFFF" stroke-width="1" fill="#5D969F"></circle><text dy="0.31em" x="6" text-anchor="start" transform="rotate(-25.522388059701512)" style="font-size: 0.43em;" fill="#5D969F">Authority bias</text></g><g class="node node-0" transform="translate(204.5437804780807,-75.05183826716741)" fill="#5D969F"><circle r="2" stroke="#FFFFFF" stroke-width="1" fill="#5D969F"></circle><text dy="0.31em" x="6" text-anchor="start" transform="rotate(-20.149253731343297)" style="font-size: 0.43em;" fill="#5D969F">Courtesy  bias</text></g><g class="node node-0" transform="translate(210.67297735697983,-55.568274861577095)" fill="#5D969F"><circle r="2" stroke="#FFFFFF" stroke-width="1" fill="#5D969F"></circle><text dy="0.31em" x="6" text-anchor="start" transform="rotate(-14.776119402985076)" style="font-size: 0.43em;" fill="#5D969F">Demand characteristics bias</text></g><g class="node node-0" transform="translate(214.9507725358653,-35.59637545847916)" fill="#5D969F"><circle r="2" stroke="#FFFFFF" stroke-width="1" fill="#5D969F"></circle><text dy="0.31em" x="6" text-anchor="start" transform="rotate(-9.40298507462689)" style="font-size: 0.43em;" fill="#5D969F">Funding bias</text></g><g class="node node-0" transform="translate(217.3395725968918,-15.311653827941438)" fill="#5D969F"><circle r="2" stroke="#FFFFFF" stroke-width="1" fill="#5D969F"></circle><text dy="0.31em" x="6" text-anchor="start" transform="rotate(-4.029850746268668)" style="font-size: 0.43em;" fill="#5D969F">Precision bias</text></g><g class="node node-0" transform="translate(217.81838467923086,5.107627166985128)" fill="#5D969F"><circle r="2" stroke="#FFFFFF" stroke-width="1" fill="#5D969F"></circle><text dy="0.31em" x="6" text-anchor="start" transform="rotate(1.343283582089543)" style="font-size: 0.43em;" fill="#5D969F">Publication bias</text></g><g class="node node-0" transform="translate(216.3830009650866,25.482022150717295)" fill="#5D969F"><circle r="2" stroke="#FFFFFF" stroke-width="1" fill="#5D969F"></circle><text dy="0.31em" x="6" text-anchor="start" transform="rotate(6.71641791044774)" style="font-size: 0.43em;" fill="#5D969F">Self-serving bias</text></g><g class="node node-0" transform="translate(213.04603565814986,45.63248020755228)" fill="#5D969F"><circle r="2" stroke="#FFFFFF" stroke-width="1" fill="#5D969F"></circle><text dy="0.31em" x="6" text-anchor="start" transform="rotate(12.089552238805965)" style="font-size: 0.43em;" fill="#5D969F">Social desirability bias</text></g><g class="node node-0" transform="translate(207.83681412952262,65.38191838755252)" fill="#5D969F"><circle r="2" stroke="#FFFFFF" stroke-width="1" fill="#5D969F"></circle><text dy="0.31em" x="6" text-anchor="start" transform="rotate(17.462686567164187)" style="font-size: 0.43em;" fill="#5D969F">Status quo bias</text></g><g class="node node-0" transform="translate(192.00076886061203,102.988549443519)" fill="#5D969F"><circle r="2" stroke="#FFFFFF" stroke-width="1" fill="#5D969F"></circle><text dy="0.31em" x="6" text-anchor="start" transform="rotate(28.208955223880583)" style="font-size: 0.43em;" fill="#5D969F">Attribution/attributional bias</text></g><g class="node node-0" transform="translate(181.51311285555582,120.51525389357388)" fill="#5D969F"><circle r="2" stroke="#FFFFFF" stroke-width="1" fill="#5D969F"></circle><text dy="0.31em" x="6" text-anchor="start" transform="rotate(33.582089552238806)" style="font-size: 0.43em;" fill="#5D969F">Correspondence bias</text></g><g class="node node-0" transform="translate(169.43031308820255,136.98286595914095)" fill="#5D969F"><circle r="2" stroke="#FFFFFF" stroke-width="1" fill="#5D969F"></circle><text dy="0.31em" x="6" text-anchor="start" transform="rotate(38.955223880597)" style="font-size: 0.43em;" fill="#5D969F">Cultural bias</text></g><g class="node node-0" transform="translate(155.85855363735925,152.24666767327528)" fill="#5D969F"><circle r="2" stroke="#FFFFFF" stroke-width="1" fill="#5D969F"></circle><text dy="0.31em" x="6" text-anchor="start" transform="rotate(44.32835820895522)" style="font-size: 0.43em;" fill="#5D969F">Fundamental attribution bias</text></g><g class="node node-0" transform="translate(140.91710361306906,166.17252019768455)" fill="#5D969F"><circle r="2" stroke="#FFFFFF" stroke-width="1" fill="#5D969F"></circle><text dy="0.31em" x="6" text-anchor="start" transform="rotate(49.701492537313406)" style="font-size: 0.43em;" fill="#5D969F">Just-world fallacy</text></g><g class="node node-0" transform="translate(124.73726901538296,178.63804263966367)" fill="#5D969F"><circle r="2" stroke="#FFFFFF" stroke-width="1" fill="#5D969F"></circle><text dy="0.31em" x="6" text-anchor="start" transform="rotate(55.074626865671625)" style="font-size: 0.43em;" fill="#5D969F">Representativeness bias</text></g><g class="node node-1" transform="translate(89.24083537905662,198.7637035788839)" fill="#7DA6D2"><circle r="2" stroke="#FFFFFF" stroke-width="1" fill="#7DA6D2"></circle><text dy="0.31em" x="6" text-anchor="start" transform="rotate(65.82089552238806)" style="font-size: 0.43em;" fill="#7DA6D2">Ascertainment bias</text></g><g class="node node-1" transform="translate(70.23618027552929,206.24697704414885)" fill="#7DA6D2"><circle r="2" stroke="#FFFFFF" stroke-width="1" fill="#7DA6D2"></circle><text dy="0.31em" x="6" text-anchor="start" transform="rotate(71.19402985074626)" style="font-size: 0.43em;" fill="#7DA6D2">Attrition bias</text></g><g class="node node-1" transform="translate(50.614287094314406,211.91774465929143)" fill="#7DA6D2"><circle r="2" stroke="#FFFFFF" stroke-width="1" fill="#7DA6D2"></circle><text dy="0.31em" x="6" text-anchor="start" transform="rotate(76.56716417910444)" style="font-size: 0.43em;" fill="#7DA6D2">Cherry picking</text></g><g class="node node-1" transform="translate(30.547593738216868,215.72617151461057)" fill="#7DA6D2"><circle r="2" stroke="#FFFFFF" stroke-width="1" fill="#7DA6D2"></circle><text dy="0.31em" x="6" text-anchor="start" transform="rotate(81.94029850746266)" style="font-size: 0.43em;" fill="#7DA6D2">Healthy user bias</text></g><g class="node node-1" transform="translate(10.212447029972374,217.63878901796508)" fill="#7DA6D2"><circle r="2" stroke="#FFFFFF" stroke-width="1" fill="#7DA6D2"></circle><text dy="0.31em" x="6" text-anchor="start" transform="rotate(87.31343283582089)" style="font-size: 0.43em;" fill="#7DA6D2">Participation bias</text></g><g class="node node-1" transform="translate(-10.21244702997225,217.6387890179651)" fill="#7DA6D2"><circle r="2" stroke="#FFFFFF" stroke-width="1" fill="#7DA6D2"></circle><text dy="0.31em" x="-6" text-anchor="end" transform="rotate(272.6865671641791)" style="font-size: 0.43em;" fill="#7DA6D2">Sampling bias</text></g><g class="node node-1" transform="translate(-30.547593738216747,215.72617151461057)" fill="#7DA6D2"><circle r="2" stroke="#FFFFFF" stroke-width="1" fill="#7DA6D2"></circle><text dy="0.31em" x="-6" text-anchor="end" transform="rotate(278.05970149253733)" style="font-size: 0.43em;" fill="#7DA6D2">Self-selection bias</text></g><g class="node node-1" transform="translate(-50.61428709431409,211.9177446592915)" fill="#7DA6D2"><circle r="2" stroke="#FFFFFF" stroke-width="1" fill="#7DA6D2"></circle><text dy="0.31em" x="-6" text-anchor="end" transform="rotate(283.4328358208955)" style="font-size: 0.43em;" fill="#7DA6D2">Spectrum bias</text></g><g class="node node-1" transform="translate(-70.23618027552918,206.2469770441489)" fill="#7DA6D2"><circle r="2" stroke="#FFFFFF" stroke-width="1" fill="#7DA6D2"></circle><text dy="0.31em" x="-6" text-anchor="end" transform="rotate(288.8059701492537)" style="font-size: 0.43em;" fill="#7DA6D2">Survivorship bias</text></g><g class="node node-1" transform="translate(-89.2408353790565,198.76370357888396)" fill="#7DA6D2"><circle r="2" stroke="#FFFFFF" stroke-width="1" fill="#7DA6D2"></circle><text dy="0.31em" x="-6" text-anchor="end" transform="rotate(294.17910447761193)" style="font-size: 0.43em;" fill="#7DA6D2">Susceptibility bias</text></g><g class="node node-1" transform="translate(-107.46123881251101,189.53368753977958)" fill="#7DA6D2"><circle r="2" stroke="#FFFFFF" stroke-width="1" fill="#7DA6D2"></circle><text dy="0.31em" x="-6" text-anchor="end" transform="rotate(299.55223880597015)" style="font-size: 0.43em;" fill="#7DA6D2">Volunteer bias</text></g><g class="node node-1" transform="translate(-140.9171036130689,166.1725201976847)" fill="#7DA6D2"><circle r="2" stroke="#FFFFFF" stroke-width="1" fill="#7DA6D2"></circle><text dy="0.31em" x="-6" text-anchor="end" transform="rotate(310.29850746268653)" style="font-size: 0.43em;" fill="#7DA6D2">Data fabrication</text></g><g class="node node-1" transform="translate(-155.85855363735922,152.2466676732753)" fill="#7DA6D2"><circle r="2" stroke="#FFFFFF" stroke-width="1" fill="#7DA6D2"></circle><text dy="0.31em" x="-6" text-anchor="end" transform="rotate(315.67164179104475)" style="font-size: 0.43em;" fill="#7DA6D2">Data Missing at random (MAR)</text></g><g class="node node-1" transform="translate(-169.43031308820244,136.98286595914112)" fill="#7DA6D2"><circle r="2" stroke="#FFFFFF" stroke-width="1" fill="#7DA6D2"></circle><text dy="0.31em" x="-6" text-anchor="end" transform="rotate(321.04477611940297)" style="font-size: 0.43em;" fill="#7DA6D2">Data Missing not at random (MNAR)</text></g><g class="node node-1" transform="translate(-181.51311285555573,120.51525389357398)" fill="#7DA6D2"><circle r="2" stroke="#FFFFFF" stroke-width="1" fill="#7DA6D2"></circle><text dy="0.31em" x="-6" text-anchor="end" transform="rotate(326.4179104477612)" style="font-size: 0.43em;" fill="#7DA6D2">Inappropriate imputation and extrapolation</text></g><g class="node node-1" transform="translate(-192.00076886061194,102.98854944351912)" fill="#7DA6D2"><circle r="2" stroke="#FFFFFF" stroke-width="1" fill="#7DA6D2"></circle><text dy="0.31em" x="-6" text-anchor="end" transform="rotate(331.7910447761194)" style="font-size: 0.43em;" fill="#7DA6D2">Information bias</text></g><g class="node node-1" transform="translate(-200.80111520530232,84.55677791787731)" fill="#7DA6D2"><circle r="2" stroke="#FFFFFF" stroke-width="1" fill="#7DA6D2"></circle><text dy="0.31em" x="-6" text-anchor="end" transform="rotate(337.1641791044776)" style="font-size: 0.43em;" fill="#7DA6D2">Observer bias</text></g><g class="node node-1" transform="translate(-207.83681412952265,65.38191838755246)" fill="#7DA6D2"><circle r="2" stroke="#FFFFFF" stroke-width="1" fill="#7DA6D2"></circle><text dy="0.31em" x="-6" text-anchor="end" transform="rotate(342.53731343283584)" style="font-size: 0.43em;" fill="#7DA6D2">Recall bias</text></g><g class="node node-1" transform="translate(-213.04603565814983,45.6324802075524)" fill="#7DA6D2"><circle r="2" stroke="#FFFFFF" stroke-width="1" fill="#7DA6D2"></circle><text dy="0.31em" x="-6" text-anchor="end" transform="rotate(347.910447761194)" style="font-size: 0.43em;" fill="#7DA6D2">Response bias</text></g><g class="node node-1" transform="translate(-217.81838467923086,5.1076271669851545)" fill="#7DA6D2"><circle r="2" stroke="#FFFFFF" stroke-width="1" fill="#7DA6D2"></circle><text dy="0.31em" x="-6" text-anchor="end" transform="rotate(358.65671641791045)" style="font-size: 0.43em;" fill="#7DA6D2">Omitted variable bias</text></g><g class="node node-1" transform="translate(-217.3395725968918,-15.311653827941267)" fill="#7DA6D2"><circle r="2" stroke="#FFFFFF" stroke-width="1" fill="#7DA6D2"></circle><text dy="0.31em" x="-6" text-anchor="end" transform="rotate(364.02985074626866)" style="font-size: 0.43em;" fill="#7DA6D2">Uncontrolled (or inappropriately controlled) extraneous variables</text></g><g class="node node-1" transform="translate(-210.67297735697983,-55.56827486157705)" fill="#7DA6D2"><circle r="2" stroke="#FFFFFF" stroke-width="1" fill="#7DA6D2"></circle><text dy="0.31em" x="-6" text-anchor="end" transform="rotate(374.7761194029851)" style="font-size: 0.43em;" fill="#7DA6D2">Indication bias</text></g><g class="node node-1" transform="translate(-204.54378047808075,-75.05183826716718)" fill="#7DA6D2"><circle r="2" stroke="#FFFFFF" stroke-width="1" fill="#7DA6D2"></circle><text dy="0.31em" x="-6" text-anchor="end" transform="rotate(380.1492537313432)" style="font-size: 0.43em;" fill="#7DA6D2">Lead time bias</text></g><g class="node node-1" transform="translate(-196.61704550172232,-93.87584341948664)" fill="#7DA6D2"><circle r="2" stroke="#FFFFFF" stroke-width="1" fill="#7DA6D2"></circle><text dy="0.31em" x="-6" text-anchor="end" transform="rotate(385.52238805970154)" style="font-size: 0.43em;" fill="#7DA6D2">Length time bias</text></g><g class="node node-1" transform="translate(-186.96243285989235,-111.87486428441629)" fill="#7DA6D2"><circle r="2" stroke="#FFFFFF" stroke-width="1" fill="#7DA6D2"></circle><text dy="0.31em" x="-6" text-anchor="end" transform="rotate(390.89552238805965)" style="font-size: 0.43em;" fill="#7DA6D2">Protopathic bias</text></g><g class="node node-1" transform="translate(-175.66478763563032,-128.89072481941912)" fill="#7DA6D2"><circle r="2" stroke="#FFFFFF" stroke-width="1" fill="#7DA6D2"></circle><text dy="0.31em" x="-6" text-anchor="end" transform="rotate(396.26865671641787)" style="font-size: 0.43em;" fill="#7DA6D2">Time interval bias</text></g><g class="node node-2" transform="translate(-148.5511024066763,-159.384775098839)" fill="#7AB439"><circle r="2" stroke="#FFFFFF" stroke-width="1" fill="#7AB439"></circle><text dy="0.31em" x="-6" text-anchor="end" transform="rotate(407.0149253731343)" style="font-size: 0.43em;" fill="#7AB439">Base rate fallacy</text></g><g class="node node-2" transform="translate(-132.9733384426817,-172.59498203295004)" fill="#7AB439"><circle r="2" stroke="#FFFFFF" stroke-width="1" fill="#7AB439"></circle><text dy="0.31em" x="-6" text-anchor="end" transform="rotate(412.3880597014925)" style="font-size: 0.43em;" fill="#7AB439">Duration neglect</text></g><g class="node node-2" transform="translate(-116.22699999923648,-184.28841805909505)" fill="#7AB439"><circle r="2" stroke="#FFFFFF" stroke-width="1" fill="#7AB439"></circle><text dy="0.31em" x="-6" text-anchor="end" transform="rotate(417.7611940298507)" style="font-size: 0.43em;" fill="#7AB439">Insensitivity to sample size</text></g><g class="node node-2" transform="translate(-98.45925450071614,-194.36232084102497)" fill="#7AB439"><circle r="2" stroke="#FFFFFF" stroke-width="1" fill="#7AB439"></circle><text dy="0.31em" x="-6" text-anchor="end" transform="rotate(423.1343283582089)" style="font-size: 0.43em;" fill="#7AB439">Peak-end bias</text></g><g class="node node-2" transform="translate(-60.49172065013249,-209.31241791239393)" fill="#7AB439"><circle r="2" stroke="#FFFFFF" stroke-width="1" fill="#7AB439"></circle><text dy="0.31em" x="-6" text-anchor="end" transform="rotate(433.88059701492534)" style="font-size: 0.43em;" fill="#7AB439">Simpson's paradox</text></g><g class="node node-2" transform="translate(-20.40244488498003,-216.92089987426678)" fill="#7AB439"><circle r="2" stroke="#FFFFFF" stroke-width="1" fill="#7AB439"></circle><text dy="0.31em" x="-6" text-anchor="end" transform="rotate(444.6268656716418)" style="font-size: 0.43em;" fill="#7AB439">Data dredging</text></g></g></svg>