<?xml version="1.0" encoding="utf-8"?>
<!-- Generator: Adobe Illustrator 26.0.3, SVG Export Plug-In . SVG Version: 6.00 Build 0)  -->
<svg version="1.1" id="Layer_1" xmlns="http://www.w3.org/2000/svg" xmlns:xlink="http://www.w3.org/1999/xlink" x="0px" y="0px"
	 viewBox="0 0 1707 828" style="enable-background:new 0 0 1707 828;" xml:space="preserve">
<style type="text/css">
	.st0{fill:none;stroke:#7570B3;}
	.st1{fill:none;stroke:#D95F02;}
	.st2{fill:none;stroke:#7AB439;}
	.st3{fill:none;stroke:#C2CBCA;}
	.st4{stroke:#FFFFFF;}
	.st5{fill:#5D969F;stroke:#FFFFFF;}
	.st6{fill:#7DA6D2;stroke:#FFFFFF;}
	.st7{fill:#7AB439;stroke:#FFFFFF;}
	.st8{fill:#7570B3;stroke:#FFFFFF;}
	.st9{fill:#D95F02;stroke:#FFFFFF;}
	.st10{enable-background:new    ;}
	.st11{fill:#7570B3;}
	.st12{font-family:'TrebuchetMS';}
	.st13{font-size:9px;}
	.st14{fill:#D95F02;}
	.st15{fill:#7AB439;}
	.st16{font-size:18px;}
	.st17{font-size:14px;}
	.st18{font-size:12px;}
	.st19{font-size:36px;}
	.st20{fill:#FFFFFF;}
</style>
<g transform="translate(810.8249999999999,414)">
	<path class="st0" d="M0,0c-20.6,29.9,36.3-1.6,72.6-3.1"/>
	<path class="st1" d="M0,0c-20.6,29.9-33.9,13-67.8,26"/>
	<path class="st2" d="M0,0c-20.6,29.9-11.5-34.4-23-68.9"/>
	<path class="st0" d="M72.6-3.1c36.3-1.6-31.4-97.7-17.7-131.4"/>
	<path class="st0" d="M72.6-3.1c36.3-1.6,32.1-27,67-37"/>
	<path class="st0" d="M72.6-3.1c36.3-1.6,21,58.9,52.2,77.5"/>
	<path class="st0" d="M72.6-3.1C108.8-4.7,49.7,97,66.2,129.3"/>
	<path class="st1" d="M-67.8,26c-33.9,13,35.5,78.1,24.7,112.7"/>
	<path class="st1" d="M-67.8,26c-33.9,13-33.9,13-67.8,26"/>
	<path class="st1" d="M-67.8,26c-33.9,13-39.9-42.3-75.8-47.8"/>
	<path class="st1" d="M-67.8,26c-33.9,13-25.7-81.8-56.9-100.4"/>
	<path class="st2" d="M-23-68.9c-11.5-34.4-34.8-23.5-54.1-54.2"/>
	<path class="st2" d="M-23-68.9c-11.5-34.4-4.8-36.5-14.1-71.6"/>
	<path class="st2" d="M-23-68.9c-11.5-34.4,13.7-39.7,10.5-75.8"/>
	<path class="st0" d="M54.9-134.5c13.7-33.6-39.3-46.4-36.1-82.6"/>
	<path class="st0" d="M54.9-134.5c13.7-33.6-23.8-44.4-17.5-80.2"/>
	<path class="st0" d="M54.9-134.5c13.7-33.6-8.5-41.1,0.8-76.2"/>
	<path class="st0" d="M54.9-134.5c13.7-33.6,6.4-36.4,18.7-70.6"/>
	<path class="st0" d="M54.9-134.5c13.7-33.6,20.9-30.5,36-63.5"/>
	<path class="st0" d="M54.9-134.5c13.7-33.6,34.8-23.4,52.7-55"/>
	<path class="st0" d="M54.9-134.5c13.7-33.6,48-15.1,68.6-45"/>
	<path class="st0" d="M54.9-134.5c13.7-33.6,60.5-5.7,83.6-33.7"/>
	<path class="st0" d="M139.6-40.1c34.9-10-1.9-78.3,25.6-101.9"/>
	<path class="st0" d="M139.6-40.1c34.9-10,7.7-66,37.2-87.2"/>
	<path class="st0" d="M139.6-40.1c34.9-10,16.3-52.9,47.5-71.5"/>
	<path class="st0" d="M139.6-40.1c34.9-10,23.7-39.2,56.4-55"/>
	<path class="st0" d="M139.6-40.1c34.9-10,29.9-24.8,63.9-37.8"/>
	<path class="st0" d="M139.6-40.1c34.9-10,34.9-10,69.8-20.1"/>
	<path class="st0" d="M139.6-40.1c34.9-10,38.6,5.2,74.2-1.8"/>
	<path class="st0" d="M139.6-40.1c34.9-10,40.9,20.6,77,16.7"/>
	<path class="st0" d="M139.6-40.1c34.9-10,41.9,36.2,78.2,35.4"/>
	<path class="st0" d="M139.6-40.1c34.9-10,41.6,51.8,77.8,54.2"/>
	<path class="st0" d="M139.6-40.1c34.9-10,39.9,67.3,75.8,72.8"/>
	<path class="st0" d="M124.7,74.4c31.2,18.6,47.5-16.8,81.9-5.3"/>
	<path class="st0" d="M124.7,74.4c31.2,18.6,41.9-2.2,75.2,12.2"/>
	<path class="st0" d="M124.7,74.4c31.2,18.6,35,11.8,67,29.1"/>
	<path class="st0" d="M124.7,74.4c31.2,18.6,27,25.2,57.4,45.2"/>
	<path class="st0" d="M124.7,74.4c31.2,18.6,17.9,37.9,46.4,60.4"/>
	<path class="st0" d="M124.7,74.4c31.2,18.6,7.7,49.8,34.2,74.6"/>
	<path class="st0" d="M66.2,129.3c16.6,32.3,43,15.8,64.9,44.8"/>
	<path class="st0" d="M66.2,129.3c16.6,32.3,30.1,24.6,49.4,55.4"/>
	<path class="st0" d="M66.2,129.3c16.6,32.3,16.6,32.3,33.1,64.6"/>
	<path class="st0" d="M66.2,129.3c16.6,32.3,2.4,38.8,16.1,72.5"/>
	<path class="st0" d="M66.2,129.3c16.6,32.3-12.3,44.1-1.6,78.8"/>
	<path class="st1" d="M-43.1,138.7c-10.8,34.7,66.5,41.3,71.1,77.4"/>
	<path class="st1" d="M-43.1,138.7c-10.8,34.7,50.9,42.7,52.5,79"/>
	<path class="st1" d="M-43.1,138.7c-10.8,34.7,35.3,42.7,33.7,79"/>
	<path class="st1" d="M-43.1,138.7c-10.8,34.7,19.7,41.3,15,77.4"/>
	<path class="st1" d="M-43.1,138.7c-10.8,34.7,4.3,38.7-3.4,74.1"/>
	<path class="st1" d="M-43.1,138.7c-10.8,34.7-10.8,34.7-21.5,69.4"/>
	<path class="st1" d="M-43.1,138.7c-10.8,34.7-25.5,29.4-39.2,63"/>
	<path class="st1" d="M-43.1,138.7c-10.8,34.7-39.7,22.9-56.2,55.2"/>
	<path class="st1" d="M-43.1,138.7c-10.8,34.7-53.3,15.2-72.5,45.9"/>
	<path class="st1" d="M-43.1,138.7c-10.8,34.7-66.1,6.3-88,35.3"/>
	<path class="st1" d="M-43.1,138.7c-10.8,34.7-78.2-3.6-102.5,23.4"/>
	<path class="st1" d="M-135.6,52c-33.9,13-7,60.4-35.5,82.8"/>
	<path class="st1" d="M-135.6,52c-33.9,13-16.1,47.7-46.5,67.6"/>
	<path class="st1" d="M-135.6,52c-33.9,13-24.1,34.3-56.1,51.5"/>
	<path class="st1" d="M-135.6,52c-33.9,13-31,20.2-64.3,34.7"/>
	<path class="st1" d="M-135.6,52c-33.9,13-36.5,5.6-71,17.2"/>
	<path class="st1" d="M-135.6,52c-33.9,13-40.9-9.4-76.2-0.9"/>
	<path class="st1" d="M-135.6,52c-33.9,13-43.9-24.7-79.8-19.3"/>
	<path class="st1" d="M-135.6,52c-33.9,13-45.5-40.2-81.8-37.9"/>
	<path class="st1" d="M-143.6-21.8c-35.9-5.4-36.9,2.3-73-1.6"/>
	<path class="st1" d="M-143.6-21.8c-35.9-5.4-34.6-13.1-70.2-20.1"/>
	<path class="st1" d="M-124.7-74.4c-31.2-18.6-44.8,9.5-78.7-3.5"/>
	<path class="st1" d="M-124.7-74.4c-31.2-18.6-38.6-4.9-71.3-20.7"/>
	<path class="st1" d="M-124.7-74.4c-31.2-18.6-31.2-18.6-62.4-37.2"/>
	<path class="st1" d="M-124.7-74.4c-31.2-18.6-22.6-31.7-52.1-52.9"/>
	<path class="st1" d="M-124.7-74.4c-31.2-18.6-12.9-43.9-40.5-67.6"/>
	<path class="st2" d="M-77.1-123.1c-19.3-30.8-38.3-17.1-61.4-45.1"/>
	<path class="st2" d="M-77.1-123.1c-19.3-30.8-25.8-26.5-46.4-56.4"/>
	<path class="st2" d="M-77.1-123.1c-19.3-30.8-12.6-34.8-30.5-66.4"/>
	<path class="st2" d="M-77.1-123.1c-19.3-30.8,1.3-41.9-13.8-74.9"/>
	<path class="st2" d="M-37.1-140.4c-9.3-35.1-9.3-35.1-18.5-70.2"/>
	<path class="st2" d="M-12.5-144.7c-3.1-36.2-3.1-36.2-6.2-72.4"/>
	<circle class="st3" cx="0" cy="0" r="334.1"/>
	<g>
		<rect x="0" y="0" class="st4" width="0" height="0"/>
	</g>
	<g>
		<rect x="0" y="0" class="st5" width="0" height="0"/>
	</g>
	<g>
		<rect x="0" y="0" class="st6" width="0" height="0"/>
	</g>
	<g>
		<rect x="0" y="0" class="st7" width="0" height="0"/>
	</g>
	<g>
		<circle class="st8" cx="126.2" cy="-309.3" r="5"/>
	</g>
	<g>
		<circle class="st8" cx="321.1" cy="-92.2" r="5"/>
	</g>
	<g>
		<circle class="st8" cx="286.9" cy="171.2" r="5"/>
	</g>
	<g>
		<circle class="st8" cx="152.3" cy="297.3" r="5"/>
	</g>
	<g>
		<circle class="st9" cx="-99.1" cy="319" r="5"/>
	</g>
	<g>
		<circle class="st9" cx="-312" cy="119.5" r="5"/>
	</g>
	<g>
		<circle class="st9" cx="-330.3" cy="-50.1" r="5"/>
	</g>
	<g>
		<circle class="st9" cx="-286.9" cy="-171.2" r="5"/>
	</g>
	<g>
		<circle class="st7" cx="-177.3" cy="-283.1" r="5"/>
	</g>
	<g>
		<circle class="st7" cx="-85.3" cy="-323" r="5"/>
	</g>
	<g>
		<circle class="st7" cx="-28.7" cy="-332.8" r="5"/>
	</g>
	<g transform="translate(18.72986084491709,-217.0717136622742)">
		<circle class="st8" cx="0" cy="0" r="2"/>
		<text transform="matrix(8.596474e-02 -0.9963 0.9963 8.596474e-02 -1.7863 -3.9949)" class="st10"><tspan x="0" y="0" class="st11 st12 st13">Anchoring and adjustment </tspan><tspan x="0" y="10.8" class="st11 st12 st13">bias</tspan></text>
	</g>
	<g transform="translate(37.321052353140125,-214.65804343373784)">
		<circle class="st8" cx="0" cy="0" r="2"/>
		<text transform="matrix(0.1713 -0.9852 0.9852 0.1713 3.745 -2.0153)" class="st11 st12 st13">Belief perseverance biases</text>
	</g>
	<g transform="translate(55.635931847227674,-210.65512015385943)">
		<circle class="st8" cx="0" cy="0" r="2"/>
		<text transform="matrix(0.2554 -0.9668 0.9668 0.2554 3.1175 -2.9837)" class="st11 st12 st13">Choice-supportive bias</text>
	</g>
	<g transform="translate(73.53890236721833,-205.09258006610344)">
		<circle class="st8" cx="0" cy="0" r="2"/>
		<text transform="matrix(0.3375 -0.9413 0.9413 0.3375 3.9437 -2.451)" class="st11 st12 st13">Confirmation bias</text>
	</g>
	<g transform="translate(90.89741658308017,-198.0116062711181)">
		<circle class="st8" cx="0" cy="0" r="2"/>
		<text transform="matrix(0.4172 -0.9088 0.9088 0.4172 4.6021 -1.9146)" class="st11 st12 st13">Congruence bias</text>
	</g>
	<g transform="translate(107.58295812876865,-189.4646238214668)">
		<circle class="st8" cx="0" cy="0" r="2"/>
		<text transform="matrix(0.4938 -0.8696 0.8696 0.4938 4.5907 -1.0155)" class="st11 st12 st13">Conservatism bias</text>
	</g>
	<g transform="translate(123.47199309243697,-179.51491158488062)">
		<circle class="st8" cx="0" cy="0" r="2"/>
		<text transform="matrix(0.5667 -0.8239 0.8239 0.5667 1.4704 -4.4597)" class="st10"><tspan x="0" y="0" class="st11 st12 st13">Information-processing </tspan><tspan x="0" y="10.8" class="st11 st12 st13">biases</tspan></text>
	</g>
	<g transform="translate(138.44688461829816,-168.23613374966138)">
		<circle class="st8" cx="0" cy="0" r="2"/>
		<text transform="matrix(0.6354 -0.7722 0.7722 0.6354 4.9248 -2.1051)" class="st10"><tspan x="0" y="0" class="st11 st12 st13">Post-purchase </tspan><tspan x="0" y="10.8" class="st11 st12 st13">rationalisation</tspan></text>
	</g>
	<g transform="translate(165.21835075859886,-142.0346194846697)">
		<circle class="st8" cx="0" cy="0" r="2"/>
		<text transform="matrix(0.7583 -0.6519 0.6519 0.7583 9.2693 -2.7514)" class="st11 st12 st13">Acquiescence bias</text>
	</g>
	<g transform="translate(176.81671880424736,-127.30586989941207)">
		<circle class="st8" cx="0" cy="0" r="2"/>
		<text transform="matrix(0.8115 -0.5843 0.5843 0.8115 9.4805 -2.2604)" class="st11 st12 st13">Agreement bias</text>
	</g>
	<g transform="translate(187.1059977265959,-111.63459219382413)">
		<circle class="st8" cx="0" cy="0" r="2"/>
		<text transform="matrix(0.8588 -0.5124 0.5124 0.8588 9.649 -1.7531)" class="st11 st12 st13">Authority bias</text>
	</g>
	<g transform="translate(196.01000930440534,-95.1368110251402)">
		<circle class="st8" cx="0" cy="0" r="2"/>
		<text transform="matrix(0.8996 -0.4367 0.4367 0.8996 9.7732 -1.2336)" class="st11 st12 st13">Courtesy bias</text>
	</g>
	<g transform="translate(203.46283135119322,-77.9346701930676)">
		<circle class="st8" cx="0" cy="0" r="2"/>
		<text transform="matrix(0.9338 -0.3577 0.3577 0.9338 8.7642 -4.9377)" class="st10"><tspan x="0" y="0" class="st11 st12 st13">Demand characteristics </tspan><tspan x="0" y="10.8" class="st11 st12 st13">bias</tspan></text>
	</g>
	<g transform="translate(209.409285780038,-60.15552832982758)">
		<circle class="st8" cx="0" cy="0" r="2"/>
		<text transform="matrix(0.9611 -0.2761 0.2761 0.9611 9.8852 -0.1719)" class="st11 st12 st13">Funding bias</text>
	</g>
	<g transform="translate(213.80534712282997,-41.931015981400904)">
		<circle class="st8" cx="0" cy="0" r="2"/>
		<text transform="matrix(0.9813 -0.1925 0.1925 0.9813 9.8724 0.3623)" class="st11 st12 st13">Precision bias</text>
	</g>
	<g transform="translate(216.61846847943357,-23.39606106101968)">
		<circle class="st8" cx="0" cy="0" r="2"/>
		<text transform="matrix(0.9942 -0.1074 0.1074 0.9942 9.8138 0.8933)" class="st11 st12 st13">Publication bias</text>
	</g>
	<g transform="translate(217.82782248354908,-4.687889890104106)">
		<circle class="st8" cx="0" cy="0" r="2"/>
		<text transform="matrix(0.9998 -2.151610e-02 2.151610e-02 0.9998 9.7098 1.4174)" class="st11 st12 st13">Self-serving bias</text>
	</g>
	<g transform="translate(217.4244555012458,14.05498877740944)">
		<circle class="st8" cx="0" cy="0" r="2"/>
		<text transform="matrix(0.9979 6.450845e-02 -6.450845e-02 0.9979 9.5611 1.9306)" class="st11 st12 st13">Social desirability bias</text>
	</g>
	<g transform="translate(215.41135392053494,32.693809225422946)">
		<circle class="st8" cx="0" cy="0" r="2"/>
		<text transform="matrix(0.9887 0.1501 -0.1501 0.9887 9.3689 2.429)" class="st11 st12 st13">Status quo bias</text>
	</g>
	<g transform="translate(206.62737172856495,69.10908632077081)">
		<circle class="st8" cx="0" cy="0" r="2"/>
		<text transform="matrix(0.9484 0.3172 -0.3172 0.9484 6.716 0.1926)" class="st10"><tspan x="0" y="0" class="st11 st12 st13">Attribution/attributional </tspan><tspan x="0" y="10.8" class="st11 st12 st13">bias</tspan></text>
	</g>
	<g transform="translate(199.92152464821018,86.61593699707586)">
		<circle class="st8" cx="0" cy="0" r="2"/>
		<text transform="matrix(0.9176 0.3975 -0.3975 0.9176 4.3356 5.9635)" class="st11 st12 st13">Correspondence bias</text>
	</g>
	<g transform="translate(191.735528545747,103.48151358010448)">
		<circle class="st8" cx="0" cy="0" r="2"/>
		<text transform="matrix(0.88 0.475 -0.475 0.88 3.9864 6.3677)" class="st11 st12 st13">Cultural bias</text>
	</g>
	<g transform="translate(182.12998967229012,119.58094924158198)">
		<circle class="st8" cx="0" cy="0" r="2"/>
		<text transform="matrix(0.8359 0.5488 -0.5488 0.8359 6.1874 2.806)" class="st10"><tspan x="0" y="0" class="st11 st12 st13">Fundamental attribution </tspan><tspan x="0" y="10.8" class="st11 st12 st13">bias</tspan></text>
	</g>
	<g transform="translate(171.17602407697623,134.7950493925677)">
		<circle class="st8" cx="0" cy="0" r="2"/>
		<text transform="matrix(0.7856 0.6187 -0.6187 0.7856 3.1901 7.0791)" class="st11 st12 st13">Just-world fallacy</text>
	</g>
	<g transform="translate(158.95473108861765,149.01117415848907)">
		<circle class="st8" cx="0" cy="0" r="2"/>
		<text transform="matrix(0.7296 0.6839 -0.6839 0.7296 2.749 7.3808)" class="st11 st12 st13">Representativeness bias</text>
	</g>
	<g transform="translate(131.08080459272745,174.03666058296312)">
		<circle class="st8" cx="0" cy="0" r="2"/>
		<text transform="matrix(0.6016 0.7988 -0.7988 0.6016 2.4903 9.9094)" class="st11 st12 st13">Apophenia</text>
	</g>
	<g transform="translate(115.63453988474271,184.66074229567627)">
		<circle class="st8" cx="0" cy="0" r="2"/>
		<text transform="matrix(0.5307 0.8475 -0.8475 0.5307 1.987 10.0886)" class="st11 st12 st13">Framing bias</text>
	</g>
	<g transform="translate(99.33215750041681,193.91766047954144)">
		<circle class="st8" cx="0" cy="0" r="2"/>
		<text transform="matrix(0.4559 0.89 -0.89 0.4559 1.4699 10.2238)" class="st11 st12 st13">Frequency illusion</text>
	</g>
	<g transform="translate(82.29435457522212,201.73888015103566)">
		<circle class="st8" cx="0" cy="0" r="2"/>
		<text transform="matrix(0.3777 0.9259 -0.9259 0.3777 0.9431 10.3141)" class="st11 st12 st13">Overconfidence bias</text>
	</g>
	<g transform="translate(64.64727304101366,208.06649573611543)">
		<circle class="st8" cx="0" cy="0" r="2"/>
		<text transform="matrix(0.2967 0.955 -0.955 0.2967 0.4114 10.3588)" class="st11 st12 st13">Pareidolio</text>
	</g>
	<g transform="translate(28.051428993494383,216.06492980344882)">
		<circle class="st9" cx="0" cy="0" r="2"/>
		<text transform="matrix(0.1287 0.9917 -0.9917 0.1287 0.9668 7.5431)" class="st14 st12 st13">Ascertainment bias</text>
	</g>
	<g transform="translate(9.373609305752225,217.6765306782737)">
		<circle class="st9" cx="0" cy="0" r="2"/>
		<text transform="matrix(4.302220e-02 0.9991 -0.9991 4.302220e-02 0.2538 7.6937)" class="st14 st12 st13">Attrition bias</text>
	</g>
	<g transform="translate(-9.373609305752295,217.6765306782737)">
		<circle class="st9" cx="0" cy="0" r="2"/>
		<text transform="matrix(4.302233e-02 -0.9991 0.9991 4.302233e-02 0.8709 64.81)" class="st14 st12 st13">Cherry picking</text>
	</g>
	<g transform="translate(-28.051428993494554,216.0649298034488)">
		<circle class="st9" cx="0" cy="0" r="2"/>
		<text transform="matrix(0.1287 -0.9917 0.9917 0.1287 -9.9115 75.2711)" class="st14 st12 st13">Healthy user bias</text>
	</g>
	<g transform="translate(-46.52156571530033,212.85365978282664)">
		<circle class="st9" cx="0" cy="0" r="2"/>
		<text transform="matrix(0.2135 -0.9769 0.9769 0.2135 -13.7012 74.1719)" class="st14 st12 st13">Participation bias</text>
	</g>
	<g transform="translate(-64.64727304101375,208.06649573611543)">
		<circle class="st9" cx="0" cy="0" r="2"/>
		<text transform="matrix(0.2967 -0.955 0.955 0.2967 -16.1296 59.7304)" class="st14 st12 st13">Sampling bias</text>
	</g>
	<g transform="translate(-82.29435457522219,201.73888015103563)">
		<circle class="st9" cx="0" cy="0" r="2"/>
		<text transform="matrix(0.3777 -0.9259 0.9259 0.3777 -27.4382 73.2114)" class="st14 st12 st13">Self-selection bias</text>
	</g>
	<g transform="translate(-99.33215750041687,193.9176604795414)">
		<circle class="st9" cx="0" cy="0" r="2"/>
		<text transform="matrix(0.4559 -0.89 0.89 0.4559 -27.9287 57.8462)" class="st14 st12 st13">Spectrum bias</text>
	</g>
	<g transform="translate(-115.63453988474268,184.6607422956763)">
		<circle class="st9" cx="0" cy="0" r="2"/>
		<text transform="matrix(0.5307 -0.8475 0.8475 0.5307 -36.5536 66.2122)" class="st14 st12 st13">Survivorship bias</text>
	</g>
	<g transform="translate(-131.08080459272753,174.0366605829631)">
		<circle class="st9" cx="0" cy="0" r="2"/>
		<text transform="matrix(0.6016 -0.7988 0.7988 0.6016 -44.7827 62.0242)" class="st14 st12 st13">Susceptibility bias</text>
	</g>
	<g transform="translate(-145.55659288464614,162.12407232536347)">
		<circle class="st9" cx="0" cy="0" r="2"/>
		<text transform="matrix(0.6681 -0.7441 0.7441 0.6681 -41.1286 49.2157)" class="st14 st12 st13">Volunteer bias</text>
	</g>
	<g transform="translate(-171.1760240769763,134.79504939256768)">
		<circle class="st9" cx="0" cy="0" r="2"/>
		<text transform="matrix(0.7856 -0.6187 0.6187 0.7856 -54.8784 46.8981)" class="st14 st12 st13">Data fabrication</text>
	</g>
	<g transform="translate(-182.12998967229018,119.58094924158193)">
		<circle class="st9" cx="0" cy="0" r="2"/>
		<text transform="matrix(0.8359 -0.5488 0.5488 0.8359 -80.7581 55.2931)" class="st10"><tspan x="0" y="0" class="st14 st12 st13">Data Missing at random </tspan><tspan x="0" y="10.8" class="st14 st12 st13">(MAR)</tspan></text>
	</g>
	<g transform="translate(-191.73552854574714,103.48151358010425)">
		<circle class="st9" cx="0" cy="0" r="2"/>
		<text transform="matrix(0.88 -0.475 0.475 0.88 -97.3617 56.8016)" class="st10"><tspan x="0" y="0" class="st14 st12 st13">Data Missing not at random </tspan><tspan x="0" y="10.8" class="st14 st12 st13">(MNAR)</tspan></text>
	</g>
	<g transform="translate(-199.92152464821018,86.61593699707579)">
		<circle class="st9" cx="0" cy="0" r="2"/>
		<text transform="matrix(0.9176 -0.3975 0.3975 0.9176 -63.9961 19.5774)" class="st10"><tspan x="0" y="0" class="st14 st12 st13">Inappropriate </tspan><tspan x="0" y="10.8" class="st14 st12 st13">imputation and </tspan><tspan x="0" y="21.6" class="st14 st12 st13">extrapolation</tspan></text>
	</g>
	<g transform="translate(-206.62737172856498,69.10908632077076)">
		<circle class="st9" cx="0" cy="0" r="2"/>
		<text transform="matrix(0.9484 -0.3172 0.3172 0.9484 -66.5213 21.6484)" class="st14 st12 st13">Information bias</text>
	</g>
	<g transform="translate(-211.80342204119796,51.09057614848836)">
		<circle class="st9" cx="0" cy="0" r="2"/>
		<text transform="matrix(0.9721 -0.2345 0.2345 0.9721 -63.2031 17.077)" class="st14 st12 st13">Observer bias</text>
	</g>
	<g transform="translate(-215.41135392053502,32.69380922542254)">
		<circle class="st9" cx="0" cy="0" r="2"/>
		<text transform="matrix(0.9887 -0.1501 0.1501 0.9887 -57.1665 12.8523)" class="st14 st12 st13">Recall bias</text>
	</g>
	<g transform="translate(-217.4244555012458,14.054988777409275)">
		<circle class="st9" cx="0" cy="0" r="2"/>
		<text transform="matrix(0.9979 -6.450860e-02 6.450860e-02 0.9979 -66.47 10.7687)" class="st14 st12 st13">Response bias</text>
	</g>
	<g transform="translate(-216.61846847943355,-23.396061061019942)">
		<circle class="st9" cx="0" cy="0" r="2"/>
		<text transform="matrix(0.9942 0.1074 -0.1074 0.9942 -95.3597 -9.1999)" class="st14 st12 st13">Omitted variable bias</text>
	</g>
	<g transform="translate(-213.80534712282994,-41.93101598140102)">
		<circle class="st9" cx="0" cy="0" r="2"/>
		<text transform="matrix(0.9813 0.1925 -0.1925 0.9813 -86.9217 -26.047)" class="st10"><tspan x="0" y="0" class="st14 st12 st13">Uncontrolled </tspan><tspan x="0" y="10.8" class="st14 st12 st13">extraneous variables</tspan></text>
	</g>
	<g transform="translate(-203.4628313511931,-77.93467019306794)">
		<circle class="st9" cx="0" cy="0" r="2"/>
		<text transform="matrix(0.9338 0.3577 -0.3577 0.9338 -62.1799 -27.9089)" class="st14 st12 st13">Indication bias</text>
	</g>
	<g transform="translate(-196.01000930440532,-95.13681102514032)">
		<circle class="st9" cx="0" cy="0" r="2"/>
		<text transform="matrix(0.8996 0.4367 -0.4367 0.8996 -61.487 -31.2917)" class="st14 st12 st13">Lead time bias</text>
	</g>
	<g transform="translate(-187.10599772659575,-111.63459219382435)">
		<circle class="st9" cx="0" cy="0" r="2"/>
		<text transform="matrix(0.8588 0.5124 -0.5124 0.8588 -63.6871 -36.5574)" class="st14 st12 st13">Length time bias</text>
	</g>
	<g transform="translate(-176.8167188042472,-127.30586989941231)">
		<circle class="st9" cx="0" cy="0" r="2"/>
		<text transform="matrix(0.8115 0.5843 -0.5843 0.8115 -61.0314 -39.2845)" class="st14 st12 st13">Protopathic bias</text>
	</g>
	<g transform="translate(-165.21835075859866,-142.0346194846699)">
		<circle class="st9" cx="0" cy="0" r="2"/>
		<text transform="matrix(0.7583 0.6519 -0.6519 0.7583 -61.3076 -44.3889)" class="st14 st12 st13">Time interval bias</text>
	</g>
	<g transform="translate(-138.446884618298,-168.23613374966152)">
		<circle class="st7" cx="0" cy="0" r="2"/>
		<text transform="matrix(0.6354 0.7722 -0.7722 0.6354 -46.8327 -54.3483)" class="st15 st12 st13">Base rate fallacy</text>
	</g>
	<g transform="translate(-123.47199309243676,-179.5149115848808)">
		<circle class="st7" cx="0" cy="0" r="2"/>
		<text transform="matrix(0.5667 0.8239 -0.8239 0.5667 -42.998 -58.8057)" class="st15 st12 st13">Duration neglect</text>
	</g>
	<g transform="translate(-107.58295812876862,-189.4646238214668)">
		<circle class="st7" cx="0" cy="0" r="2"/>
		<text transform="matrix(0.4938 0.8696 -0.8696 0.4938 -58.5671 -97.0395)" class="st15 st12 st13">Insensitivity to sample size</text>
	</g>
	<g transform="translate(-90.89741658307994,-198.0116062711182)">
		<circle class="st7" cx="0" cy="0" r="2"/>
		<text transform="matrix(0.4172 0.9088 -0.9088 0.4172 -28.2894 -56.0982)" class="st15 st12 st13">Peak-end bias</text>
	</g>
	<g transform="translate(-55.63593184722752,-210.65512015385949)">
		<circle class="st7" cx="0" cy="0" r="2"/>
		<text transform="matrix(0.2554 0.9668 -0.9668 0.2554 -22.6805 -74.5804)" class="st15 st12 st13">Simpson&apos;s paradox</text>
	</g>
	<g transform="translate(-18.72986084491707,-217.07171366227422)">
		<circle class="st7" cx="0" cy="0" r="2"/>
		<text transform="matrix(8.596500e-02 0.9963 -0.9963 8.596500e-02 -7.3335 -61.7999)" class="st15 st12 st13">Data dredging</text>
	</g>
	<text transform="matrix(1 0 0 1 519.574 -340.8455)" class="st11 st12 st16">COGNITIVE &amp; EMOTIONAL</text>
	<text transform="matrix(1 0 0 1 521.8052 -306.8124)" class="st14 st12 st16">DATA SELECTION, SAMPLING, &amp; COLLECTION</text>
	<text transform="matrix(1 0 0 1 520.6713 -275.1397)" class="st15 st12 st16">ANALYSIS METHODS &amp; OUTCOMES</text>
	<text transform="matrix(1 0 0 1 131.0809 -314.333)" class="st11 st12 st17">I can see I’m right bias</text>
	<text transform="matrix(1 0 0 1 329.0803 -88.2385)" class="st11 st12 st17">Social dynamics bias</text>
	<text transform="matrix(1 0 0 1 300.8175 177.3883)" class="st11 st12 st17">We all have the same 24 hours bias</text>
	<text transform="matrix(1 0 0 1 156.9547 314.0351)" class="st11 st12 st17">Superior pattern and insight discovery bias</text>
	<text transform="matrix(1 0 0 1 -282.0744 -291.1462)" class="st15 st12 st17">Extention neglect</text>
	<text transform="matrix(1 0 0 1 -162.0871 -330.0043)" class="st15 st12 st17">Segmentation</text>
	<text transform="matrix(1 0 0 1 -54.63 -341.8148)" class="st15 st12 st17">Intentional</text>
	<text transform="matrix(1 0 0 1 521.6776 -367.9252)" class="st12 st16">COLOR KEY:</text>
	<text transform="matrix(1 0 0 1 -374.6469 -192.8328)" class="st10"><tspan x="0" y="0" class="st14 st12 st17">Condition,</tspan><tspan x="0" y="16.8" class="st14 st12 st17">intervention,</tspan><tspan x="0" y="33.6" class="st14 st12 st17">&amp; time</tspan></text>
	<text transform="matrix(1 0 0 1 -394.1077 -46.6272)" class="st14 st12 st17">Variables</text>
	<text transform="matrix(1 0 0 1 -383.09 126.543)" class="st14 st12 st17">Responses</text>
	<text transform="matrix(1 0 0 1 -183.2494 346.9196)" class="st14 st12 st17">Participants/ “Responders”</text>
	<text transform="matrix(1 0 0 1 505.5488 405.5359)" class="st12 st18">Source code: https://github.com/pkiage/data-experiments-traps-viz</text>
	<text transform="matrix(1 0 0 1 -786.6118 -354.3908)"><tspan x="0" y="0" class="st12 st19">Data Experiment Traps: </tspan><tspan x="0" y="43.2" class="st12 st19">Biases, Fallacies, Malpractice, </tspan><tspan x="0" y="86.4" class="st12 st19">and Heuristics*</tspan></text>
	<ellipse cx="0.2" cy="-0.2" rx="56" ry="52.7"/>
	<text transform="matrix(1 0 0 1 -50.5177 16.0047)" class="st20 st12 st19">TRAPS</text>
	<text transform="matrix(1 0 0 1 -782.9014 -234.3597)"><tspan x="0" y="0" class="st12 st18">*Intended as vocabulary list for further research and awareness </tspan><tspan x="0" y="14.4" class="st12 st18">therefore categories &amp; vocabulary aren&apos;t all distinct to each other</tspan></text>
</g>
<image style="overflow:visible;" width="403" height="141" xlink:href="66CF1B11.jpg"  transform="matrix(0.2676 0 0 0.2399 14.0964 782.7935)">
</image>
</svg>
